<svg id="Layer_1" data-name="Layer 1" xmlns="http://www.w3.org/2000/svg" viewBox="0 0 75.33 74.75"><defs><style>.cls-1{fill:#fff;}</style></defs><path class="cls-1" d="M21.2,65.12l-3-2,1.58-.34c.42-.09.76-.18,1-.26a4.56,4.56,0,0,0,.61-.24,1.43,1.43,0,0,0,.33-.22.73.73,0,0,0,.15-.17.66.66,0,0,0,.09-.19.48.48,0,0,0-.21-.54.46.46,0,0,0-.4-.08.61.61,0,0,0-.33.25l-.09.17-1.07-.72a2.15,2.15,0,0,1,.51-.53A1.78,1.78,0,0,1,21,60a1.64,1.64,0,0,1,.66,0,1.94,1.94,0,0,1,.65.28,2.17,2.17,0,0,1,.51.49,1.57,1.57,0,0,1,.3,1.22,1.57,1.57,0,0,1-.26.61,1.38,1.38,0,0,1-.51.48,2.31,2.31,0,0,1-.78.25l-1,.17,1.22.82Z"/><path class="cls-1" d="M24.68,63l-.59-.29.43-.89,1.65.81-2,4.06-1.05-.52Z"/><path class="cls-1" d="M29,66.12a3.15,3.15,0,0,1,.36-.92,2.16,2.16,0,0,1,.55-.64,1.76,1.76,0,0,1,.7-.34,1.8,1.8,0,0,1,.8,0,1.74,1.74,0,0,1,.71.34,1.67,1.67,0,0,1,.48.61,2.3,2.3,0,0,1,.22.82,3.45,3.45,0,0,1-.09,1,3,3,0,0,1-.36.92,2.21,2.21,0,0,1-.55.65,1.69,1.69,0,0,1-.7.34,1.76,1.76,0,0,1-.79,0,1.72,1.72,0,0,1-.72-.34,1.91,1.91,0,0,1-.48-.61,2.36,2.36,0,0,1-.22-.83A3.51,3.51,0,0,1,29,66.12Zm1.13.27a2.67,2.67,0,0,0-.07.54,2,2,0,0,0,.05.45,1,1,0,0,0,.17.33.57.57,0,0,0,.61.14,1,1,0,0,0,.29-.22,1.55,1.55,0,0,0,.24-.38,3.16,3.16,0,0,0,.18-.52,2.67,2.67,0,0,0,.07-.54,2,2,0,0,0-.05-.45.86.86,0,0,0-.17-.33.53.53,0,0,0-.28-.16.5.5,0,0,0-.32,0,.89.89,0,0,0-.3.22,1.55,1.55,0,0,0-.24.38A2.44,2.44,0,0,0,30.16,66.39Z"/><path class="cls-1" d="M34.44,67.05a1,1,0,0,1-.63-1,1.21,1.21,0,0,1,.15-.51,1.24,1.24,0,0,1,.35-.37,1.34,1.34,0,0,1,.5-.22,1.92,1.92,0,0,1,.64,0,1.71,1.71,0,0,1,.61.14,1.39,1.39,0,0,1,.47.29,1.29,1.29,0,0,1,.28.42,1.16,1.16,0,0,1,.07.53,1.4,1.4,0,0,1-.06.32.89.89,0,0,1-.14.25,1.29,1.29,0,0,1-.25.2,3.08,3.08,0,0,1-.36.17,1.22,1.22,0,0,1,.83,1.23,1.33,1.33,0,0,1-.17.52,1.27,1.27,0,0,1-.4.4,2.2,2.2,0,0,1-.56.24,2.3,2.3,0,0,1-.7,0,2.27,2.27,0,0,1-.67-.15,1.74,1.74,0,0,1-.53-.32,1.5,1.5,0,0,1-.33-.46,1.23,1.23,0,0,1-.09-.54A1.2,1.2,0,0,1,34.44,67.05Zm.21,1a.5.5,0,0,0,0,.21.57.57,0,0,0,.1.19.65.65,0,0,0,.16.13.42.42,0,0,0,.21.06.5.5,0,0,0,.21,0,.54.54,0,0,0,.18-.11.48.48,0,0,0,.13-.16.42.42,0,0,0,.06-.21.52.52,0,0,0-.12-.4.54.54,0,0,0-.77-.06A.53.53,0,0,0,34.65,68.09Zm.2-2a.54.54,0,0,0,.11.37.51.51,0,0,0,.34.17.49.49,0,0,0,.21,0l.16-.1a.44.44,0,0,0,.12-.15.41.41,0,0,0,.05-.18.47.47,0,0,0-.12-.36.45.45,0,0,0-.34-.18.5.5,0,0,0-.53.45Z"/><path class="cls-1" d="M44.11,69l-3.61.52,1-1.31c.24-.35.44-.64.57-.88a3.48,3.48,0,0,0,.29-.59,1.19,1.19,0,0,0,.1-.38.88.88,0,0,0,0-.23.6.6,0,0,0-.06-.19.65.65,0,0,0-.13-.16.56.56,0,0,0-.17-.09.53.53,0,0,0-.22,0,.5.5,0,0,0-.35.21.57.57,0,0,0-.08.41,1.86,1.86,0,0,0,.05.19l-1.27.18a2,2,0,0,1,0-.73,1.51,1.51,0,0,1,.28-.6,1.42,1.42,0,0,1,.5-.44,1.77,1.77,0,0,1,.67-.23,2.09,2.09,0,0,1,.71,0,1.62,1.62,0,0,1,.6.25,1.49,1.49,0,0,1,.44.46,1.58,1.58,0,0,1,.22.62,1.38,1.38,0,0,1-.06.7,2.47,2.47,0,0,1-.4.71l-.65.8L44,68Z"/><path class="cls-1" d="M44.51,66.6a2.89,2.89,0,0,1-.15-1,2.19,2.19,0,0,1,.16-.83,1.79,1.79,0,0,1,.44-.64,1.68,1.68,0,0,1,.69-.39,1.78,1.78,0,0,1,.79-.06,1.74,1.74,0,0,1,.72.29,2.44,2.44,0,0,1,.6.6,3.74,3.74,0,0,1,.42.9,3.18,3.18,0,0,1,.14,1,2.24,2.24,0,0,1-.15.84,1.79,1.79,0,0,1-.44.64,1.68,1.68,0,0,1-.69.39,1.83,1.83,0,0,1-.8.06,1.85,1.85,0,0,1-.72-.29,2.29,2.29,0,0,1-.59-.61A2.88,2.88,0,0,1,44.51,66.6Zm1.11-.33a2.59,2.59,0,0,0,.21.5,1.54,1.54,0,0,0,.27.37.79.79,0,0,0,.31.19.5.5,0,0,0,.32,0,.52.52,0,0,0,.27-.19.84.84,0,0,0,.15-.33,2.2,2.2,0,0,0,0-.45,2.25,2.25,0,0,0-.11-.54,2.36,2.36,0,0,0-.21-.51,2.09,2.09,0,0,0-.26-.36.79.79,0,0,0-.31-.19.53.53,0,0,0-.33,0,.47.47,0,0,0-.27.19.91.91,0,0,0-.14.33,1.59,1.59,0,0,0,0,.45A2.88,2.88,0,0,0,45.62,66.27Z"/><path class="cls-1" d="M53,65.75l-3.29,1.56.51-1.53a9.51,9.51,0,0,0,.29-1,4.18,4.18,0,0,0,.11-.65,1.14,1.14,0,0,0,0-.39.81.81,0,0,0-.07-.22.71.71,0,0,0-.11-.17.62.62,0,0,0-.17-.11.41.41,0,0,0-.19,0,.63.63,0,0,0-.22.05.5.5,0,0,0-.27.3.59.59,0,0,0,0,.41l.1.17-1.16.55a2.09,2.09,0,0,1-.19-.71,1.82,1.82,0,0,1,.09-.66,1.59,1.59,0,0,1,.35-.56,1.81,1.81,0,0,1,.58-.42,2.25,2.25,0,0,1,.68-.19,1.74,1.74,0,0,1,.65.07,1.56,1.56,0,0,1,.94.83,1.58,1.58,0,0,1,.16.69,2.42,2.42,0,0,1-.19.8l-.37,1,1.32-.63Z"/><path class="cls-1" d="M57,63.17l-3,2,.28-1.59a9.93,9.93,0,0,0,.15-1,3.59,3.59,0,0,0,0-.66,1.18,1.18,0,0,0-.07-.39,2.09,2.09,0,0,0-.1-.21l-.14-.14L54,61.08a.44.44,0,0,0-.2,0,.6.6,0,0,0-.21.08.5.5,0,0,0-.22.34.59.59,0,0,0,.1.4l.13.15-1.07.72a2,2,0,0,1-.29-.67,1.52,1.52,0,0,1,0-.67,1.57,1.57,0,0,1,.26-.61,2,2,0,0,1,.51-.5A1.94,1.94,0,0,1,53.6,60a1.6,1.6,0,0,1,.65,0,1.65,1.65,0,0,1,.59.23,1.58,1.58,0,0,1,.47.46,1.56,1.56,0,0,1,.25.66,2.42,2.42,0,0,1-.06.82l-.24,1,1.22-.82Z"/><path class="cls-1" d="M37.66,73.88a36.5,36.5,0,1,1,36.5-36.5A36.55,36.55,0,0,1,37.66,73.88Zm0-72a35.5,35.5,0,1,0,35.5,35.5A35.54,35.54,0,0,0,37.66,1.88Z"/><path class="cls-1" d="M51.83,50.77l-2.11-9.32C48.92,38,46.94,36.1,43.1,34l-1-.5,8-8.22h3.67V23.62H46v1.69H47.7l-7.13,7.46-4.63-2.28V25.31h4.47V23.62H25.35c-3,0-4.84,1.18-4.84,3.12,0,1.48,1.13,2.91,3.87,4.43l8.52,4.76,1.18.67V50.77h0a11,11,0,0,1-4,.72c-5.1,0-8.73-2.91-8.73-7.13a4.65,4.65,0,0,1,4.43-4.64,4.83,4.83,0,0,1,4.34,2.62l1.43-.84a6.38,6.38,0,0,0-12,2.86c0,5.14,4.42,8.77,10.54,8.77,6.44,0,11-4.05,11-9.65,0-3.5-1.53-5.49-5.14-7.79V32.43l5.48,2.66c3.79,1.85,5.77,3.58,6.49,6.7l2.36,10.66h5.48V50.77ZM39.22,43.48a7.5,7.5,0,0,1-3.28,6.34V37.76C38.31,39.4,39.22,40.88,39.22,43.48Zm-5.44-9.07-8.47-4.76c-2.28-1.26-3-2.07-3-2.91s.92-1.52,2.95-1.52h8.85v9.36Z"/><path class="cls-1" d="M13.84,17.42a1.36,1.36,0,0,0-.42.16.89.89,0,0,0-.29.25.57.57,0,0,0-.15.35.33.33,0,0,0,.14.29.31.31,0,0,0,.2.07.7.7,0,0,0,.22-.07,1.49,1.49,0,0,0,.24-.14l.25-.18a1.78,1.78,0,0,1,.92-.34,1.27,1.27,0,0,1,.83.3,1.86,1.86,0,0,1,.42.48,1.3,1.3,0,0,1,.17.57,1.6,1.6,0,0,1-.1.63,2.16,2.16,0,0,1-.37.65,2.74,2.74,0,0,1-1.38.94l-.43-1a1.86,1.86,0,0,0,.59-.19,1.35,1.35,0,0,0,.41-.33.6.6,0,0,0,.16-.42.41.41,0,0,0-.31-.38.37.37,0,0,0-.18,0,.89.89,0,0,0-.23.1l-.3.18c-.13.09-.26.18-.4.26a1.45,1.45,0,0,1-.42.16,1,1,0,0,1-.46,0,1.2,1.2,0,0,1-.5-.26,1.6,1.6,0,0,1-.41-.46,1.34,1.34,0,0,1-.18-.53,1.68,1.68,0,0,1,.07-.58,1.76,1.76,0,0,1,.32-.58,2.91,2.91,0,0,1,.5-.49,3.3,3.3,0,0,1,.65-.39Z"/><path class="cls-1" d="M18.92,15.91l-1.23,1.14.33.76-.91.86-1.82-4.49.95-.88,4.33,2.15-.92.86Zm-.83-.44-1.42-.75.64,1.47Z"/><path class="cls-1" d="M24.26,13l-1.22.8L21.15,13l1,1.46-1,.64-2.48-3.78,1.53-1a1.71,1.71,0,0,1,.61-.27,1.27,1.27,0,0,1,.55,0,1.23,1.23,0,0,1,.48.22,1.42,1.42,0,0,1,.37.4,1.31,1.31,0,0,1,.25.83,1.24,1.24,0,0,1-.37.77Zm-3.53-.67.18-.12a.84.84,0,0,0,.37-.42.5.5,0,0,0-.07-.45.49.49,0,0,0-.38-.24.87.87,0,0,0-.53.17l-.18.12Z"/><path class="cls-1" d="M27.05,10.93l-1.54.67.07.83-1.15.5L24.2,8.09l1.18-.51L28.76,11l-1.15.5Zm-.64-.7L25.32,9.06l.12,1.59Z"/><path class="cls-1" d="M29.92,7.89l1.65-.39-.4-1.7,1.15-.27,1,4.41-1.14.27-.42-1.82-1.66.38.43,1.82-1.15.27-1-4.41,1.14-.27Z"/><path class="cls-1" d="M39.74,8a5,5,0,0,0,.61-.62l.64.67-.24.27-.31.28-.09.08,1,1.11-1.47,0-.38-.43a2.8,2.8,0,0,1-1.57.48,1.76,1.76,0,0,1-.58-.12,1.33,1.33,0,0,1-.44-.28,1.25,1.25,0,0,1-.38-1A1.43,1.43,0,0,1,36.59,8a1.05,1.05,0,0,1,.25-.37,1.23,1.23,0,0,1,.29-.22,1.92,1.92,0,0,1,.38-.19l.13-.06-.08-.09a1.35,1.35,0,0,1-.31-.85,1,1,0,0,1,.12-.48,1.3,1.3,0,0,1,.31-.39,1.67,1.67,0,0,1,.46-.24,1.7,1.7,0,0,1,1.12,0,1.21,1.21,0,0,1,.72.68,1.12,1.12,0,0,1,.08.49,1,1,0,0,1-.05.32.85.85,0,0,1-.15.28,1.25,1.25,0,0,1-.27.23,2.11,2.11,0,0,1-.4.22Zm-1.57-.22c-.29.17-.44.34-.44.52a.32.32,0,0,0,0,.17.42.42,0,0,0,.11.15.51.51,0,0,0,.16.09.45.45,0,0,0,.2,0,1.2,1.2,0,0,0,.63-.17Zm.52-1c.29-.16.44-.34.45-.55A.43.43,0,0,0,39,6a.4.4,0,0,0-.29-.14.39.39,0,0,0-.27.1.42.42,0,0,0-.12.27A1.18,1.18,0,0,0,38.69,6.82Z"/><path class="cls-1" d="M46,8.17,48,6.82l1.38.43L47,8.76l1.17,2.86-1.46-.45-.88-2.33-.58,1.87-1.12-.35L45.47,6l1.13.35Z"/><path class="cls-1" d="M52.64,9.92,51.38,9.3l-.33.68,1.18.58-.43.89-1.19-.58-.34.7,1.25.62-.44.89L48.77,12l2-4.06L53.08,9Z"/><path class="cls-1" d="M55.21,10.3l-.68,2.88L57,11.55l1,.73L53.9,14.9l-.77-.53,1-4.8Z"/><path class="cls-1" d="M59.81,13.92l-3,3.35-.87-.79,3-3.35Z"/><path class="cls-1" d="M57.62,18l3.49-2.89.75.9-.75,3.44,2.13-1.76.75.9-3.48,2.88-.75-.9.74-3.43L58.37,18.9Z"/><circle class="cls-1" cx="67.07" cy="37.38" r="1.76"/><circle class="cls-1" cx="8.26" cy="37.38" r="1.76"/></svg>