<svg id="Layer_1" data-name="Layer 1" xmlns="http://www.w3.org/2000/svg" viewBox="0 0 100.3972 236.5075"><defs><style>.cls-1{fill:#fff;}</style></defs><path class="cls-1" d="M83.3864,135.8533q-1.6645,6.5445-3.329,13.0891-.8232,2.4514-1.6463,4.9028-1.94,4.5027-3.88,9.0052-.3993.7863-.7988,1.5724-2.0537,3.249-4.1072,6.498a4.4391,4.4391,0,0,0-.5062.5329c-5.0957,7.479-9.9564,15.1466-17.015,21.04a2.5483,2.5483,0,0,0-.7684,2.4932q1.0542,8.3621,2.0853,16.73c.5084-.1368.6076-.573.68-.96,1.9169-10.2174,7.6972-18.4449,13.7922-26.4649,3.1086-4.09,6.5525-7.9259,9.8449-11.8767a58.9163,58.9163,0,0,0,7.006-7.451l-.0179-.0266a23.8671,23.8671,0,0,0,4.6008-4.2413,7.594,7.594,0,0,0,2.42-2.2648l3.5308-2.9116,1.19-.965a.2157.2157,0,0,0,.29-.0837c1.88,1.6218-.51,2.8492-.4,4.3091-3.3588,6.9577-7.0122,13.7606-10.6318,20.5855-6.8182,12.8561-16.0533,23.85-25.9133,34.3891a11.3157,11.3157,0,0,1-2.8752,2.3771c-2.2416,1.1672-2.6444,2.6287-1.8535,5.025,1.354,4.1028,2.3826,8.3174,3.4192,12.5168.2232.9043,1.3639,2.3663-.0527,2.7939-1.0717.3236-1.13-1.399-1.3826-2.2861-1.4581-5.1179-2.91-10.24-4.208-15.4a3.18,3.18,0,0,0-2.467-2.6936c-13.4334-3.7969-23.6365-12.2349-32.3365-22.7529C12.21,186.2668,7.2612,178.557,2.3449,170.8344c-.6193-.9728-1.9776-2.2264-.8358-3.2837,1.0367-.96,2.3365.263,3.3447.9006,16.3321,10.3308,30.9083,22.526,41.4818,38.9955,1.414,2.2025,3.1786,4.18,5.0264,6.5808a5.1019,5.1019,0,0,0,.1832-3.0065c-.6963-5.7834-1.4364-11.5617-2.1091-17.3479a2.0027,2.0027,0,0,0-1.2141-1.93c-6.6727-2.978-10.7313-8.64-14.9239-14.2774C25.7579,167.3272,23.6,155.394,21.271,143.451c-1.08-5.5355-1.5411-11.2177-3.6316-16.5341-.1882-.4786-.4035-1.04.2365-1.2551.6949-.2332,1,.448,1.3464.879a87.0186,87.0186,0,0,1,9.0216,12.855,119.1019,119.1019,0,0,0,6.7046,11.3863c3.8591,5.5582,5.6748,11.9861,7.42,18.4222a102.7314,102.7314,0,0,0,5.8121,16.3806c-.6194-7.5591-.603-15.1125-.7547-22.6593-.0652-3.2427-.0249-6.4925.12-9.7323a3.355,3.355,0,0,0-1.6322-3.3049A68.2329,68.2329,0,0,1,29.44,134.058c-3.1088-4.1758-7.388-7.1931-11.4294-10.3663A37.86,37.86,0,0,1,5.9451,107.8012,148.9529,148.9529,0,0,1,.26,90.7761c-.2335-.8636-.5855-1.8778.3756-2.5092.8378-.5505,1.6117.0947,2.294.5146C15.62,96.59,27.1268,105.69,35.4987,118.2886a43.6457,43.6457,0,0,1,6.0105,12.26c1.5135,5.3595,4.0074,10.3468,6.2108,15.5747.1473-2.5678.3489-5.1338.43-7.7036.1416-4.494.345-8.9819.9214-13.4438a3.0927,3.0927,0,0,0-.44-2.3817c-6.2476-8.3643-9.1108-18.0183-10.75-28.1405.0191-.0559.0627-.117.0523-.1668a2.1309,2.1309,0,0,0-.1113-.308c-1.1774-8.568.7069-16.7883,2.8387-24.98l.756-2.44a11.0206,11.0206,0,0,0,.7874-8.9223c-2.848-8.6592-1.6125-17.612-.6916-26.468.3182-3.0592.8289-6.0983,1.2449-9.1474.0784-.5743.0361-1.2412.7126-1.4668a1.407,1.407,0,0,1,1.6684.7885c6.07,9.6,11.2181,19.361,12.3522,31.1446,1.0264,10.6655-.11,21.2235.27,31.8205.0141.3923.0582.7836.1065,1.412,1.0239-.5511,1.0267-1.4384,1.2028-2.1346,2.4112-9.5319,5.223-18.9141,9.9795-27.5991a8.4819,8.4819,0,0,0,.9368-3.853c.3759-11.8968,4.8665-22.28,11.5927-31.8792C86.3744,13.4117,92.0643,7.3465,97.7743,1.2947,98.3083.7287,98.8605-.274,99.7682.07c.9746.37.5393,1.4645.4878,2.2178-.3179,4.6475-.5732,9.3059-1.1146,13.93A33.1,33.1,0,0,1,93.87,30.3649C88.9414,38.0161,83.7279,45.3706,75.988,50.587a21.3694,21.3694,0,0,0-7.9819,10.28c-2.2359,5.7282-5.0249,11.2452-5.9379,17.4179-.6412.2385-.9265.7416-.3879,1.1942.562.4723.6693-.2747.9-.5991,2.8475-3.9966,5.7428-7.96,8.5295-11.9989A59.4082,59.4082,0,0,1,81.2454,55.5756,114.4159,114.4159,0,0,0,97.8926,38.0451c.4041-.5342.8-1.5149,1.6968-1.0843.7027.3374.4552,1.229.2847,1.8291-1.8509,6.5141-1.7748,13.3537-3.4434,19.9064a24.6777,24.6777,0,0,1-8.5653,13.715C79.6888,78.8885,71.017,84.6156,61.2662,88.5038a5.1089,5.1089,0,0,0-3.3217,3.6384C55.7664,99.6537,53.8,107.2132,52.3456,114.9a6.4144,6.4144,0,0,0,.0173,2.3852,47.2364,47.2364,0,0,1,7.5306-8.2946c7.2555-6.3977,15.2549-11.8244,22.91-17.6991C87.2277,87.8962,91.72,84.59,96.1972,81.2643c.5766-.4283,1.2355-1.1162,1.9931-.5317.6362.4908.2429,1.2635.02,1.862-6.7073,18.0463-17.2422,32.4174-36.7219,38.2089a37.6,37.6,0,0,1-8.8319,1.5543c-.9092.0464-1.6249.1462-1.7764,1.26a139.5641,139.5641,0,0,0-1.0688,20.9012,44.9252,44.9252,0,0,1,9.3965-11.7418,98.9924,98.9924,0,0,1,14.3963-11.1424c7.83-5.1046,14.9307-11.1415,22.0863-17.1123a17.0047,17.0047,0,0,1,2.26-1.5535c1.111-.6557,1.475.0492,1.6482,1.0038a4.6974,4.6974,0,0,0-.4442,2.4924l-.687,2.4319-.5507,1.4585q-.2314.86-.4621,1.7192c-3.1733,5.2612-5.1452,11.2534-9.5824,15.7462l-1.546,1.4644C83.654,130.7179,83.37,133.2186,83.3864,135.8533ZM45.9581,147.6889c-.01.0646-.0165.13-.0321.1934a.2613.2613,0,0,1-.05.0736l.0984-.2416a1.8916,1.8916,0,0,0-.3494-.0586c-.079.2248-.0294.2387.132.0477C45.7876,147.6673,45.8878,147.69,45.9581,147.6889Zm4.25-87.1864A11.0021,11.0021,0,0,0,49.77,64.5c-3.3714,15.9553-6.1691,31.9365-2.1482,48.2447.4159-8.89,3.5907-17.2388,4.9-25.9413a73.6352,73.6352,0,0,0,.2875-22.3251q-.15-1.988-.3-3.9759a31.1642,31.1642,0,0,0-1.174-10.0264A49.7137,49.7137,0,0,0,50.2085,60.5025ZM61.227,84.5915a188.3371,188.3371,0,0,0,13.96-13.1579c7.2847-7.5287,14.5986-15.0543,19.1888-24.683.392-.8222,1.1737-1.57.5989-2.9065a146.0111,146.0111,0,0,1-10.8256,10.89c-3.813,3.468-7.678,6.8692-10.6312,11.1657-3.3417,4.8617-6.7978,9.6448-10.1464,14.5018-.8761,1.2707-1.9983,2.4619-2.065,4.1454l-.1-.0324ZM44.62,209.5086l.4576.7411c.3467-.368.1185-.734-.0036-1.1-10.2117-16.7-24.4991-29.1246-40.9975-39.3665a1.1833,1.1833,0,0,0,.264,1.3218c5.4322,7.6671,10.205,15.8388,16.3626,22.9437,6.1,7.0386,12.7267,13.6335,21.54,17.4056.8669.371,1.5912,1.4818,3.1009.4852-9.0777-6.3046-16.4274-14.1451-22.9994-22.7665a56.0613,56.0613,0,0,1,5.8613,5.4649C33.31,200.0019,38.4878,205.28,44.62,209.5086Zm9.8789-91.7644A244.721,244.721,0,0,0,81.4812,100.667c-7.9581,8.2157-18.0939,13.3307-27.48,19.5415a46.4307,46.4307,0,0,0,28.0164-13.2618c6.6771-6.4376,10.9529-14.6189,14.44-23.3336a2.7435,2.7435,0,0,0-2.3419.9383c-9.583,7.1864-19.2017,14.3268-28.7067,21.6152-4.2128,3.23-8.4207,6.5344-11.3031,11.1448-.1153.1645-.3658.4089-.3235.48C54.0129,118.1819,54.2623,117.885,54.4986,117.7442ZM20.7606,130.96l-.2408-.3649-.0846.3242.3678-.02c-.6155.3944-.1818.9008-.0982,1.3258q2.3593,11.9955,4.7632,23.9822c2.5537,12.6146,9.4287,22.7253,18.4423,31.5689a7.5323,7.5323,0,0,0,4.0671,2.4065c-.4126-1.0283-.7261-1.8489-1.0687-2.6573-2.1112-4.9824-4.4062-9.9732-5.4208-15.2616-2.629-13.7038-10.6312-24.7672-17.2841-36.5046A53.2448,53.2448,0,0,0,20.7606,130.96Zm33.6815,84.6124c3.1395-1.6014,5.1072-4.4551,7.439-6.9266,13.0325-13.8139,23.112-29.6032,31.2728-46.6756.355-.7428,1.0576-1.4693.62-2.4035-.8445-.1675-1.1259.4508-1.5357.8146a192.7928,192.7928,0,0,0-22.965,24.6195c-7.1417,9.0126-13.1283,18.64-15.1765,30.226-.0682.1261-.2265.3012-.1892.37C54.0725,215.898,54.269,215.7547,54.4421,215.5722ZM1.569,89.5393a135.2365,135.2365,0,0,0,5.274,15.8569,37.75,37.75,0,0,0,12.7834,17.4355,62.7607,62.7607,0,0,1,14.1641,14.2864c2.8345,4.1368,7.11,6.9432,10.9357,10.1427C40.37,141.5594,35.94,135.9542,31.2326,130.593c-5.1656-5.8826-10.18-11.845-13.8569-18.8034-.2685-.508-1.1095-1.1706-.414-1.7284.8217-.6589,1.2861.2378,1.7287.8132a6.8817,6.8817,0,0,1,.57.8191c4.9119,8.7806,11.7347,16.1108,18.065,23.8161,2.1264,2.5882,4.186,5.2314,6.37,7.9676a4.877,4.877,0,0,0-.364-3.1161,74.9149,74.9149,0,0,1-3.6914-10.315,39.9358,39.9358,0,0,0-6.8253-12.6771c-2.6615-3.4074-5.3524-6.8169-8.3139-9.9584-3.3982-3.6047-6.3554-7.8029-11.1289-9.8355a28.181,28.181,0,0,1-7.515-4.8334C4.6822,91.7169,3.3577,90.8638,1.569,89.5393ZM98.2762,104.845a3.5374,3.5374,0,0,0-2.5192,1.3556,207.5611,207.5611,0,0,1-23.385,17.8731,80.949,80.949,0,0,0-10.4612,8.0843c-4.4407,4.1081-8.9515,8.1931-11.2634,14.0222-.2369.5973-.9287,1.2324-.4822,1.8221.5293.6989,1.4162.29,2.0944.0662,2.3571-.7761,4.74-1.5087,7.0218-2.4724,5.8812-2.4834,11.3193-5.535,14.97-11.125,2.27-3.4768,4.9177-6.7085,7.4158-10.0351.3748-.4989.696-1.276,1.5384-.94.6688.2666.477.983.57,1.5351.2,1.1908-.1872,2.4665.6318,3.9288C91.6993,122.3578,95.5679,114.09,98.2762,104.845Zm-4.719-91.4511.6109.3075q-.1439.4389-.2878.8779c-2.1008,6.4191-5.9471,11.8559-9.7346,17.33-3.741,5.4071-6.9864,11.1225-10.3617,16.7568-.1866.3114-.6911.5082-.2057,1.0034.5019.5119.7031-.04.9929-.2186.4917-.3039.9453-.6686,1.432-.9811,6.5559-4.2092,10.6224-10.6432,15.1415-16.714,6.6164-8.8881,7.7685-19.1142,7.9509-30.2589-12.8829,13.7885-25.6392,26.97-26.782,46.8448C78.5418,36.1594,87.8783,25.91,93.5572,13.3939ZM43.7956,59.1551a1.6,1.6,0,0,0,.9385-1.3183c.9237-4.18,3.0517-7.8947,4.5826-11.8393.2755-.71.3805-1.8189,1.512-1.6645.8889.1212.9083,1.0813,1.1573,1.7627a6.2555,6.2555,0,0,1,.2429.9669A139.4413,139.4413,0,0,1,54.855,82.2475c-.0994,1.58-.1164,3.0411,1.3758,4.2734.1543-4.7675-.1607-9.3324.1725-13.9057,1.1495-15.7743-.2469-31.0984-8.6368-45.0527-1.1149-1.8543-1.9324-3.97-4.023-5.4907C42.1754,34.6436,39.945,46.87,43.7956,59.1551Zm36.6753,70.272c-.6242.3867-.875.463-1.002.6322-4.7212,6.2884-9.6567,12.4321-14.0734,18.928a92.8292,92.8292,0,0,0-9.3769,17.7549,63.3947,63.3947,0,0,0-4.1427,21.9843,9.7587,9.7587,0,0,0,1.3919-2.2378c4.7872-9.7667,9.3332-19.6519,15.051-28.9433a128.2089,128.2089,0,0,0,10.5457-22.2685A20.9155,20.9155,0,0,0,80.4709,129.4271ZM50.2342,48.7852l-.6337-.1635c-.4242.96-.9154,1.8956-1.2617,2.8825-2.4185,6.8935-4.9336,13.75-7.1117,20.7309-4.4489,14.2579-2.4355,27.8975,3.5763,41.2127.3263.7228.5114,1.6366,1.6618,2.1354-.15-.9258-.1943-1.5891-.3689-2.2161-3.9627-14.2288-2.0343-28.3385.8319-42.432C48.4185,63.6069,49.2461,56.1845,50.2342,48.7852Zm46.65-3.58C89.1694,61.7226,75.3235,72.95,62.79,85.3573a4.3753,4.3753,0,0,0,3.614-.7657A184.0192,184.0192,0,0,0,84.085,73.3531c4.7994-3.4492,8.7088-7.6016,10.3434-13.3524A63.3268,63.3268,0,0,0,96.8837,45.2049ZM67.6988,143.4771c-.8367.0645-1.1042.0074-1.2773.11a51.9735,51.9735,0,0,1-15.91,6.25c-1.1025.23-1.2405.73-1.2623,1.6595a287.1534,287.1534,0,0,0,.6458,30.8654,2.2378,2.2378,0,0,0,1.0555,2.2257C51.53,168.8858,58.6219,155.9626,67.6988,143.4771Zm12.3187-14.2c1.7014.1382,1.4732,1.1582,1.2592,2.1013a29.4828,29.4828,0,0,1-.819,2.8718,144.19,144.19,0,0,1-12.8283,27.5016c-5.0551,8.5313-9.1036,17.5748-13.5907,26.3951,5.92-5.32,17.9139-23.5454,21.49-32.1885a91.6849,91.6849,0,0,0,6.9035-25.14C82.6353,128.9543,81.9433,128.5894,80.0175,129.2767ZM49.6794,117.95a3.1155,3.1155,0,0,0,.9532-2.158A179.3673,179.3673,0,0,1,55.915,94.2841c.901-3.0021.6581-5.1679-1.6607-7.5246C53.0719,97.2111,48.6917,107,49.6794,117.95Zm-3.1683-1.9207c-.0735.0512-.198.1052-.1929.14a2.9966,2.9966,0,0,0,.1294.4453c.06-.0506.1743-.1057.1706-.1511A2.5013,2.5013,0,0,0,46.5111,116.0291ZM3.7479,169.6516l-.1319-.1647-.16.1376.2051.1712Z"/></svg>