<svg id="Layer_1" data-name="Layer 1" xmlns="http://www.w3.org/2000/svg" viewBox="0 0 88.9795 140.1464"><defs><style>.cls-1{fill:#fff;}</style></defs><path class="cls-1" d="M.9341,103.18a28.28,28.28,0,0,1-.8806-8.4c.538-7.0812,6.8748-10.8078,13.3-7.765A17.0052,17.0052,0,0,1,19.78,92.4393a34.8707,34.8707,0,0,1,6.2352,15.5928c.1523.9778.4462,2.175.0519,2.957-2.4673,4.8913,1.7172,7.0734,3.9389,10.0426a7.6682,7.6682,0,0,0,1.65,1.16,168.6838,168.6838,0,0,1-.2793-20.5419c.2841-5.0734-.5453-9.2634-5.0242-12.2807a10.3052,10.3052,0,0,1-2.4271-3.1322C15.1459,72.522,9.3527,57.808,7.5494,41.4426,6.22,29.38,4.2912,17.3743,3.0043,5.2952a21.0367,21.0367,0,0,1-.0889-2.9924C2.9447,1.51,2.653.4422,3.5994.0813c1.0151-.387,1.42.7,1.8559,1.3116,3.9583,5.5565,7.901,11.1136,11.2975,17.0565,7.3259,12.8181,9.99,26.8505,11.3319,41.3028.815,8.78,1.948,17.5309,2.9431,26.2943a2.2616,2.2616,0,0,0,.313.9355c1.6083-13.7992,2.0306-27.7843,7.321-40.9338-2.8837,11.4373-3.848,23.13-4.89,35.5647,1.173-2.7976,1.7487-5.098,2.713-7.2432,8.7262-19.4123,19.4231-37.5308,34.4113-52.8551,2.2668-2.3176,4.7114-4.4634,7.1087-6.65.5737-.5234,1.1886-1.4578,2.1033-.8195.8333.5813.3115,1.5324.1845,2.3217A91.466,91.466,0,0,1,68.696,48.8216c-4.4089,7.441-8.4562,15.0953-12.7191,22.6236A51.131,51.131,0,0,1,35.3276,91.5508a3.7425,3.7425,0,0,0-2.3147,3.8776c.24,11.0591-.4231,22.1489,1.2365,33.1553.0735.4874.19.9685.2925,1.4868.8562-.126.7424-.8193.8823-1.2861.4773-1.593.9476-3.1911,1.3335-4.808,3.5194-14.7489,11.76-26.6777,22.4662-37.0188,9.4484-9.126,16.9047-19.9117,25.4685-29.7692,1.0472-1.2054,2.01-3.5522,3.5541-2.9516,1.5334.5963.1852,2.8276.1842,4.3271a30.0083,30.0083,0,0,1-2.8691,12.3043c-2.4437,5.467-4.828,10.9632-7.1019,16.5026-4.2864,10.4421-11.703,18.7311-18.7868,27.2064-7.1538,8.5589-15.4008,16.1226-22.9666,24.3143-.5332.5774-1.0416,1.4922-2.02,1.198-1.0674-.3207-1.0705-1.4052-1.1943-2.2858a52.87,52.87,0,0,1-.7759-6.6906A12.2622,12.2622,0,0,0,28.84,122.497l-.0147-.0168c-.8106-.93-1.2059-2.2229-2.4352-2.7875-.7062-.9936-1.2152-2.2953-2.1674-2.9045-1.2509-.8-2.1976.9836-3.4736,1.0573a2.5881,2.5881,0,0,0-.6939.25,15.9119,15.9119,0,0,1-5.8579-1.1619q-2.385-1.4025-4.77-2.8049-2.1528-2.17-4.3053-4.3405A34.8057,34.8057,0,0,1,.9341,103.18Zm28.64-12.885.2074.3411.0919-.3058-.3413.0243c.0943-.2056.3023-.4336.2669-.6137-2.2323-11.3681-3.13-22.91-4.2423-34.408-1.2-12.4085-4.2089-24.1978-10.0679-35.235a116.4756,116.4756,0,0,0-10.9-16.5352c.7349,8.1583,1.5842,16.246,2.7218,24.293,1.2564,8.8871,2.5418,17.7822,4.2407,26.5917,2.2425,11.6289,8.3734,21.6205,14.228,31.6777A10.71,10.71,0,0,0,29.5739,90.2948ZM86.677,57.5917a8.5394,8.5394,0,0,0-2.5239,2.5671c-8.6625,10.6357-17.071,21.445-26.9512,31.0805A68.6311,68.6311,0,0,0,41.339,114.9281c-2.2092,5.5375-3.5772,11.4142-5.2474,17.1605a9.5822,9.5822,0,0,0-.2164,5.28c2.9043-2.3231,4.79-5.2961,7.2436-7.7285a266.9806,266.9806,0,0,0,25.0789-28.0888C76.68,90.3687,81.1238,77.2688,86.05,64.4A13.915,13.915,0,0,0,86.677,57.5917ZM1.75,95.5683c-.392,9.6471,7.3341,18.2607,14.8456,20.5827,4.2994,1.329,7.9035-1.0566,7.78-5.39-.2307-8.1131-3.1294-15.2509-9.3437-20.7-2.6471-2.3208-5.8978-3.2244-9.2869-1.6856C2.3873,89.9007,1.7935,93.0339,1.75,95.5683Zm75.6193-75.5c-13.2454,23.62-27.4584,46.6067-42.41,69.1865a4.5527,4.5527,0,0,0,2.2081-.7529c5.96-4.0624,11.47-8.6216,15.2615-14.8779,3.2337-5.3361,6.4159-10.711,9.3978-16.19C66.5151,48.82,71.772,40.487,75.0432,31.1524A49.4846,49.4846,0,0,0,77.3692,20.0679Zm-1.9024-.2525c-13.478,9.4332-41.54,55.442-40.6306,65.9478C49.642,64.7,62.83,42.4432,75.4668,19.8154Zm.2558-.7669c-.0249.0506-.0835.1153-.0692.1493.0874.208.1977.2084.2865.0011.0146-.034-.0322-.1142-.0721-.1454C75.8369,19.0294,75.7722,19.0487,75.7226,19.0485Z"/><path class="cls-1" d="M8.8213,101.3979c-.1844,1.06.1751,2.67-1.445,2.9277-1.3631.2164-1.8661-1.1438-2.3224-2.194-.6232-1.4345-1.2579-2.8905-.8591-4.526.1823-.7473.4789-1.4437,1.32-1.63a1.8482,1.8482,0,0,1,1.8927.906A7.5184,7.5184,0,0,1,8.8213,101.3979Zm-1.7439,1.627c.6563-3.0823.3556-4.1034-1.4863-5.5C4.91,99.5939,5.6087,101.2155,7.0774,103.0249Z"/></svg>