<svg id="Layer_1" data-name="Layer 1" xmlns="http://www.w3.org/2000/svg" viewBox="0 0 24.2982 142.8886"><defs><style>.cls-1{fill:#fff;}</style></defs><path class="cls-1" d="M22.504,65.1436q-.0139.5-.028,1a35.8782,35.8782,0,0,0-.4916,6.4073L21.91,73.6381q-.0933.75-.1868,1.4993C20.55,87.8974,15.39,99.74,13.182,112.2677c-1.7449,9.9011-2.8,19.7784-.3262,29.713a3.4047,3.4047,0,0,1-.0784.9079,3.697,3.697,0,0,1-1.9227-3.2035c-.6737-7.1871-3.9268-13.776-4.766-20.884-1.0285-8.7106-4.2322-16.93-5.3862-25.625C-.6807,82.754.29,72.4461.9708,62.06A115.5682,115.5682,0,0,1,9.5683,25.5758,164.553,164.553,0,0,1,21.8457,1.3374c.4422-.7168.9256-1.5657,1.8236-1.2809.8559.2713.5921,1.2669.5855,1.99a41.7179,41.7179,0,0,1-.1425,5.4864c-1.5008,10.5126-.7794,21.0821-.9314,31.6287q-.0608.742-.1216,1.484c-.0819,1.3943-.6,2.8.12,4.1719a28.0315,28.0315,0,0,0-.3752,10.334l-.2447,8.9914Q22.5315,64.6434,22.504,65.1436ZM9.2294,126.1188a2.8147,2.8147,0,0,0,.6317-2.1492A106.2584,106.2584,0,0,1,14.189,99.7005a141.2787,141.2787,0,0,0,6.5637-45.2384c-.1782-11.147,1.2823-22.2689.5146-33.4307a30.4448,30.4448,0,0,1,.3858-4.9671c.399-4.0893.817-8.1766,1.2661-12.6511a4.7355,4.7355,0,0,0-1.97,2.3737C10.6942,24.5961,3.1639,44.1638,2.2731,65.979c-.4253,10.4148-1.2639,20.74.7226,31.0711,1.3823,7.1886,3.72,14.1662,4.6456,21.4538A33.6636,33.6636,0,0,0,9.2294,126.1188Z"/></svg>