<svg id="Layer_1" data-name="Layer 1" xmlns="http://www.w3.org/2000/svg" viewBox="0 0 21.0989 126.4303"><defs><style>.cls-1{fill:#fff;}</style></defs><path class="cls-1" d="M12.22,126.43c-1.2744-1.5366-1.1675-3.2653-1.2521-4.8743-.301-5.7311-.5591-11.4664-.6924-17.2033a12.9507,12.9507,0,0,0-1.753-6.3618C3.809,89.728,1.8293,80.5953,1.1474,71.2721.3053,59.7565-.7953,48.1927.8543,36.6481,2.3243,26.36,3.782,16.06,7.9308,6.3881,8.65,4.7106,9.1685,2.9472,9.79,1.2271c.2-.553.4286-1.1358,1.1073-1.217.8379-.1,1.1155.57,1.4158,1.1667a3.1836,3.1836,0,0,1,.1805.4651c2.7421,8.6285,6.0183,17.13,7.2646,26.1485a155.1644,155.1644,0,0,1,.5541,36.0776,213.319,213.319,0,0,1-7.6954,39.0832,21.1948,21.1948,0,0,0-.3765,6.454c.1214,5.2381.3394,10.474.5238,15.7105A1.3191,1.3191,0,0,1,12.22,126.43ZM11.05,3.07A130.808,130.808,0,0,0,6.3954,16.01,150.803,150.803,0,0,0,2.1087,66.4893a97.7371,97.7371,0,0,0,5.4349,26.8,7.87,7.87,0,0,0,2.3213,3.8163c.3292-16.9156.6527-33.54.9762-50.1642l.8283.0025c1.1529,16.8263-.0434,33.6969.4944,50.5358C19.7989,65.988,23.8506,34.535,11.05,3.07Z"/></svg>