<svg id="Layer_1" data-name="Layer 1" xmlns="http://www.w3.org/2000/svg" viewBox="0 0 30.2442 70.9265"><defs><style>.cls-1{fill:#fff;}</style></defs><path class="cls-1" d="M30.2213,19.79c-.1846,8.6959-1.8419,17.01-6.409,24.5691a15.0545,15.0545,0,0,1-8.6393,7.1444c-1.3615.4025-1.578,1.1692-1.648,2.3487a59.4783,59.4783,0,0,0,.5415,14.9259c.1425.7375.6813,1.9408-.4006,2.1314-1.0342.1823-.9646-1.12-1.1791-1.8748a33.8012,33.8012,0,0,1-.6641-15.0853c.2264-1.3314.111-2.0355-1.3989-2.5574-3.5422-1.2243-5.5475-4.0738-6.9571-7.404C-2.1746,30.6607-.6866,17.7348,6.1579,5.3728c2.55-4.6057,7.4109-5.73,12.4-5.2821a10.9633,10.9633,0,0,1,9.8481,7.6818A31.4641,31.4641,0,0,1,30.2213,19.79Zm-1.8078-.7209A31.8031,31.8031,0,0,0,26.6587,8.7824c-1.3238-3.8089-3.9122-6.4879-8.11-6.8-4.6433-.3452-9.1182.67-11.2793,5.2292C3.5131,15.1363.4356,23.3157,2.0112,32.42c.9582,5.5366,2.14,10.98,6.1953,15.22,2.475,2.5879,4.963,2.8861,8.1434,1.2684a14.9856,14.9856,0,0,0,6.1667-6.3431C26.6465,35.2758,27.99,27.29,28.4135,19.0688Z"/><path class="cls-1" d="M25.5324,14.07c-.297,1.1118-.6193,2.4871-1.0424,3.8307a1.294,1.294,0,0,1-1.4945,1.042c-.7873-.1592-.9661-.8493-.951-1.5486.0323-1.4974.0651-2.9967.174-4.49.0641-.8768-.0258-1.9923,1.2831-2.0565,1.287-.0631,1.6411.921,1.8649,1.9471C25.4369,13.118,25.4544,13.4529,25.5324,14.07Zm-2.1975,3.1351c.901-1.6385,1.5128-3.2727.1708-5.4468A10.9539,10.9539,0,0,0,23.3349,17.2049Z"/></svg>