<svg id="Layer_1" data-name="Layer 1" xmlns="http://www.w3.org/2000/svg" viewBox="0 0 133.6053 194.0017"><defs><style>.cls-1{fill:#fff;}</style></defs><path class="cls-1" d="M18.0233,190.0919c-5.74-2.5115-10.6623-6.5453-16.508-8.86l-.0067-.8607,22.4286-3.3085q.7464-.14,1.4927-.28l7.9821.0556,1.5137-.1469c1.22.9707,2.6445.5423,4,.5831l1.5987-.0876.9239-.0259q9.4284,2.7809,18.8579,5.5579c.5155.1515,1.1217.6335,1.5425-.0465.3381-.5463-.2178-.8914-.5527-1.2242q-2.6455-2.628-5.3114-5.236a140.761,140.761,0,0,1-9.7424-12.54,2.0258,2.0258,0,0,0-2.0267-1.0836,17.1488,17.1488,0,0,1-7.9684-1.5809c-1.05-.44-1.8214-.5024-2.5238.577-.9433,1.45-2.592,1.9817-4.0013,2.8169a17.0929,17.0929,0,0,1-9.7089-.8568l-5.7712-3.2769a18.8415,18.8415,0,0,1-3.9872-5.5036q-.2649-1.8774-.53-3.7548c1.4542-6.66,5.5027-8.829,11.8727-6.2471,1.9.77,3.6792,1.8363,5.5137,2.7669l4.3406,3.5451c1.56,2.3223,3.875,4.2616,3.63,7.4856-.0619.815.6877.9963,1.3655,1.0835l.9747.309a1.0752,1.0752,0,0,0,1.1213.2892,3.0545,3.0545,0,0,0,2.2469.5433c1.0008.3927,2.2915,1.0026,2.9795.1228.6541-.8364-.55-1.75-1.0212-2.5687-1.3566-2.3556-2.7958-4.6637-4.2026-6.99l-.8967-1.8287-1.0146-2.0831q-.2039-.4986-.4078-.9969l-.4464-1.1493-1.2037-3.3807q-.195-.6939-.39-1.3879c-.0209-1.3219-1.0325-1.7864-1.9855-2.3177-2.4666-1.3752-4.96-2.6782-7.3232-4.2615-9.4256-6.3153-15.1131-15.103-18.4475-25.8529C3.4141,98.3625.4558,88.6892.128,78.42c-.0169-.5327-.4427-1.2528.3587-1.4988.5744-.1764.8234.43,1.0718.8452,5.5261,9.227,12.3754,17.5338,18.4276,26.4,5.3218,7.7959,7.9377,16.6,10.9162,25.3189.16.4666.1,1.007.9622,1.2486-.0825-1.87-.4322-3.653-.4791-5.4481a135.6208,135.6208,0,0,1,.8368-17.1954c.0933-.9245.5763-1.998-.7132-2.6114C25.921,102.8207,22.3746,98.13,19.22,93.0616c-7.2614-11.6671-13.1912-23.9-15.4612-37.5989-.761-4.5921-1.1071-9.2533-1.6265-13.8848-.0614-.5478-.3161-1.2823.4148-1.5162.6657-.2131,1.0062.4476,1.3455.9041,7.3041,9.8291,14.2461,19.9094,19.747,30.87,3.3462,6.6674,3.99,14.2272,6.2781,21.2626.9743,2.9958,1.7322,6.0621,2.7892,9.8082A71.4077,71.4077,0,0,1,37.49,87.1625a1.4737,1.4737,0,0,0-.548-2.119c-7.293-4.8889-10.227-12.3076-12.1866-20.4468a84.56,84.56,0,0,1,.1025-38.844c.89-3.9722,1.3877-8.031,2.1294-12.0382.164-.8855-.0511-2.1493,1.4433-2.2289l.0426.136.1425.0041a40.23,40.23,0,0,1,3.3452,12.7c1.2821,11.327,2.5931,22.6508,3.8468,33.981.9282,8.3883,1.7846,16.7845,2.673,25.1774,1.0732-.0052,1.0865-.8553,1.3276-1.3912a83.9921,83.9921,0,0,1,7.6549-13.9939,3.0246,3.0246,0,0,0,.4548-2.8176,15.0666,15.0666,0,0,1-.9364-3.8641c-.0694-3.41-.3013-6.2076-4.3837-7.7227-2.6467-.9823-3.4385-4.4021-4.0242-7.1637a21.2431,21.2431,0,0,1,5.1105-19.4918C47.96,22.2943,54.37,23.933,56.0611,30.0917c1.1717,4.2668.77,8.6036-.1968,12.8618-.6421,2.8291-1.2,5.7145-2.7586,8.2451A5.8647,5.8647,0,0,1,50.54,53.8624c-2.9295,1.0967-3.0727,3.2239-2.5644,5.77.3408,1.7065.5851,3.4323.8549,5.0442.8647.35,1.0362-.2477,1.3161-.6023,3.457-4.38,6.85-8.8245,11.646-11.8866.8549-.5458.914-1.113.6628-2.0766-2.5884-9.9291-2.1823-19.3395,3.1249-28.6412,4.16-7.2919,8.5151-14.2667,14.5554-20.1156C80.6461.86,80.899.02,82.0223,0a15.4192,15.4192,0,0,1-.3305,8.3058c-2.7648,7.7449-5.1648,15.6431-9.39,22.7921a90.1667,90.1667,0,0,0-6.21,13.88c-.6022,1.5745-2.2223,2.9005-1.3107,5.0889,2.4416-1.6533,4.8183-3.2957,7.2287-4.8871a64.8191,64.8191,0,0,1,11.332-6.2871,2.6055,2.6055,0,0,0,1.7081-1.3306c3.4064-8.1672,10.4468-12.41,17.9486-15.7322,8.995-3.983,18.6076-6.2009,28.21-8.2881.659-.1432,1.4077-.6244,2.3974.24-3.1251,2.6509-6.1231,5.3448-9.2806,7.837-4.7034,3.7123-9.4464,7.383-14.3041,10.8894-7.63,5.5073-16.2715,7.7237-25.62,7.4135a3.0647,3.0647,0,0,0-1.4179.2938c-4.24,2.1211-8.1933,4.73-12.196,7.2528-.2429.1531-.339.5392-.6532,1.07,4.4914-.6722,8.7136-1.4969,12.97-2.0914,8.3084-1.16,16.6286-.0322,24.9291-.5014,4.2383-.24,8.4707-.6485,12.723-.4657.61.0263,1.5121-.3205,1.6962.5609.1378.659-.6852.8069-1.16,1.1145-11.819,7.6525-24.9688,10.855-38.8475,11.1338A42.8442,42.8442,0,0,1,65.611,55.1553c-1.101-.4415-1.7027-2.1244-2.835-1.77a10.6026,10.6026,0,0,0-4.2025,3.0427c-3.6217,3.7716-7.1813,7.5895-10.0765,13.05a29.9306,29.9306,0,0,1,12.2556-1.776A6.8628,6.8628,0,0,0,66.0015,65.74c5.717-5.1219,17.4686-3.8407,21.5158,2.1017a10.5308,10.5308,0,0,1,1.4883,3.144c1.6218,5.8866-.7437,9.4239-6.83,10.0774a23.5935,23.5935,0,0,1-11.5308-1.504c-4.1652-1.6927-6.921-4.5982-7.0156-9.3622-.0215-1.0842-.329-1.4825-1.4032-1.4629-4.671.0852-9.3308.1869-13.7321,2.0726a4.2132,4.2132,0,0,0-2.3059,1.7787,108.821,108.821,0,0,0-6.3848,13.2422l-.23.5887.6069-.0922c3.32-1.0545,6.5777-2.3668,10.1241-2.5006a2.1741,2.1741,0,0,0,1.3435-.551c5.775-4.6879,11.4106-5.007,17.3876-.4827,2.2057,1.67,3.8988,1.8827,6.5768,1.2193,7.5327-1.8661,15.34-1.8725,23.051-2.5021.3854-.0314.8958-.1991,1.1038.2779.3232.7412-.3784,1.0155-.7859,1.3583-5.985,5.033-11.482,10.6736-18.0074,15.0258a18.9316,18.9316,0,0,0-6.9755,8.7982c-3.0544,7.1569-6.6326,13.9281-12.9113,18.97A61.974,61.974,0,0,1,46.24,135.0185c-2.8366,1.1893-5.6008,2.5566-8.46,3.6851-1.7026.672-1.9563,1.5026-1.35,3.2152,2.9163,8.244,7.3576,15.6373,12.39,22.7114.7532,1.0587,1.2712,2.335,2.73,3.2893-2.2581-8.1078.8592-14.9183,4.1126-21.7229,4.037-8.4436,9.6244-15.938,14.5109-23.861,2.096-3.3985,4.2925-6.7355,6.0816-10.315.2842-.5687.4916-1.4627,1.3112-1.2527.7753.1986.5912,1.091.6071,1.7182.2176,8.6052-.2144,17.0858-3.3718,25.2879-2.023,5.2554-2.7822,10.9385-5.4907,16.0074-3.47,6.4938-8.7263,11.5212-13.509,16.9293-1.1252,1.2724-1.0936,1.8824-.0389,2.95,3.1932,3.2318,6.1174,6.7527,10.3391,9.6109-2.5563-9.3084.7526-16.9863,4.88-24.4444a252.9588,252.9588,0,0,0,15.3528-32.9929c.417-1.1019.5644-3.0113,1.9164-2.8444,1.5655.1931,1.11,2.145,1.369,3.382a41.9543,41.9543,0,0,0,.8671,4.6488c3.9553,11.9075,1.73,22.9153-5.2733,32.9344-3.7126,5.3116-7.426,10.6375-11.2726,15.8605a35.46,35.46,0,0,1-2.9087,3.418c-2.191,2.2967-2.2149,2.2739.8741,3.73l8.3338,5.739c.3622,2.1289-.7919,1.1016-1.4933.6671-3.1822-1.9713-6.3343-3.9911-9.4977-5.9927a2.7679,2.7679,0,0,0-2.5392-.6075c-3.9414,1.3057-7.9063,2.54-11.8624,3.8018q-1.7229.551-3.4459,1.1021-3.41.9085-6.819,1.8168c-7.2658.4278-14.425-.5849-21.5843-1.596l-3.5529-1.17Zm52.46-79.1467c-.1427.6683-.4845.8922-1.1047.4946-.4969-.97.4946-1.2247.9005-1.6518a19.0233,19.0233,0,0,0,4.0793-6.1324c.0525-.1958.2037-.5157.14-.5661-.28-.2228-.5481-.0819-.7561.1774a9.1,9.1,0,0,0-1.1827.3672c-5.1548,2.3823-10.3249,4.6762-16.24,3.9469-.9359-.1154-1.4627.651-2.1242,1.1383-9.1258,6.7212-13.6953,16.4661-17.6744,26.6a1.8668,1.8668,0,0,0,.035,2.1295c3.6588-2.6636,7.7274-4.6989,11.2649-7.5854,6.4416-5.256,12.8356-10.5609,18.7573-16.412.4746-.4689.7448-1.5822,1.8491-1.0574.3935.499-.0784.7454-.3369.9907-4.1628,3.95-8.1686,8.0673-12.6807,11.6444-2.8677,2.2735-5.6168,4.6964-8.4191,7.0523,3.4959-.0626,6.0179-2.0311,8.5635-3.8067,6.4618-4.5071,11.9118-9.9384,14.97-17.3824l-.0914-.03ZM80.919,5.5236C73.6275,17.328,67.1026,29.4584,64.6056,43.4709c1.1393-.2861,1.0762-1.1594,1.3168-1.8048a49.59,49.59,0,0,1,3.9309-9.1375c4.21-6.7456,6.8219-14.2039,9.7937-21.4979.7066-1.7343,1.8474-3.49,1.2287-5.565l.34-.0118-.1038-.2966Zm-45.8552,96.04c3.6116-3.4216,7.2237-6.8476,12.0422-8.5671,1.3122-.4683,3.0529-.48,3.8839-1.3682,1.0855-1.16-.5486-2.7218-.4591-4.185a7.8427,7.8427,0,0,1,.0153-1.24c.3037-1.3187-.1874-1.56-1.4249-1.3214a42.34,42.34,0,0,0-9.4706,2.984,2.6171,2.6171,0,0,0-1.4849,1.5287c-1.4016,3.89-3.0072,7.7284-3.3653,11.9158l-.1354.5256Zm52.7344,24.2148a9.5041,9.5041,0,0,0-.7561,1.4492,150.0557,150.0557,0,0,1-7.979,18.8115c-2.9575,6.1387-6.4539,12.0178-9.4192,18.1531-2.7927,5.7781-4.3632,11.8326-2.7392,18.3673.4826,1.9416,1.0782,1.6877,2.2052.6359a29.2277,29.2277,0,0,0,3.933-4.5048q5.4745-7.7393,10.966-15.4658c6.0671-8.5382,8.665-18.1106,6.1468-28.5826C89.4592,131.7463,88.5058,128.914,87.7982,125.7787ZM53.74,170.8358c7.3559-7.8941,14.8443-15.2746,17.5086-25.7748,2.5316-9.9771,7.2279-19.6236,5.33-30.956-4.9081,8.7-10.4506,16.3877-15.3848,24.46a94.4489,94.4489,0,0,0-7.5194,14.8915A22.6909,22.6909,0,0,0,53.74,170.8358ZM2.0086,81.2984a39.0446,39.0446,0,0,0,1.2206,12.15c1.5067,6.17,4.1579,12.0495,6.0076,18.1482,3.1932,10.5279,10.6219,17.4281,19.3469,23.2993,1.1762.7914,2.43,1.4669,3.6486,2.196-4.6465-9.7908-6.1385-20.5983-11.9365-29.7185C14.5979,98.411,8.0219,90.0877,2.0086,81.2984ZM28.0037,14.58c-.2273,1.3024-.467,2.6027-.6784,3.9077-.226,1.3955-.3495,2.8118-.6479,4.1908-2.8386,13.1192-4.2348,26.2489-1.2629,39.5855,1.5785,7.0833,3.617,13.847,8.8037,19.2272.808.8381,1.4775,1.8938,2.9655,2.0926-.7726-6.4623-1.6771-12.6995-2.2345-18.9676-1.148-12.9091-2.81-25.7666-3.7246-38.7017A29.4987,29.4987,0,0,0,28.0037,14.58Zm32.422,170.018a15.94,15.94,0,0,0-5.78-2.2419A75.33,75.33,0,0,1,44.07,179.4437a21.3075,21.3075,0,0,0-6.0942-1.1923c-10.3932-.7547-20.5791.91-30.7687,2.5512-.4292.0691-1.0931-.2094-1.2012.5114-.0961.64.5392.7346.927,1.0077,10.1126,7.1245,21.5091,9.8067,33.7011,9.75a25.65,25.65,0,0,0,6.9285-.7629q6.96-1.9716,13.9006-4.014c.5677-.1667,1.3542-.0574,1.62-1.0874-5.808.1532-11.5241-.3021-17.2714-.166-6.89.163-13.8215.478-20.6511-.93-.7618-.157-1.7775.01-2.28-1.2491C35.4994,185.9567,47.9646,184.2508,60.4257,184.5979Zm-25.8841-80.45a165.47,165.47,0,0,0,25.621,1.7931,14.2981,14.2981,0,0,0,4.8782-.9258A53.574,53.574,0,0,0,81.9953,95.717c4.59-3.8443,9.2937-7.5518,13.92-11.3526.4537-.3726,1.2516-.5506,1.1607-1.5937-3.1629.2574-6.3094.4393-9.4377.7858-4.3744.4846-8.8066.5113-13.1082,1.5991-1.3068.33-2.2664.772-1.019,2.266a5.5633,5.5633,0,0,1,.7236,1.3054c2.8748,6.4055-.8883,13.1024-7.2619,12.7433-5.8338-.3288-10.918-2.2243-13.9841-7.6884-.3586-.6393-.5886-1.184-1.6774-.9077C44.51,94.6,39.2716,98.562,34.5416,104.1474ZM55.3866,36.031c-.1021-1.333-.1489-2.7484-.3306-4.1464-.3484-2.68-1.2734-5.1462-4.0807-6.0333-2.9835-.9428-5.39.3768-7.1851,2.7461a19.956,19.956,0,0,0-3.0117,19.9835c1.0313,2.8327,2.7449,5.2414,5.979,5.1943s5.2479-2.3346,6.3255-5.2366A35.39,35.39,0,0,0,55.3866,36.031Zm8.8021,15.8169c8.674,8.3337,41.9956,5.5835,54.888-5.2638-.4981,0-.8952-.009-1.2917.0014-6.3156.166-12.6138,1.0771-18.943.58-10.0624-.79-19.9074.6533-29.69,2.7673-.8742.189-1.9358.2608-2.4977,1.2446,11.4319,1.3738,22.7266-.06,34.03-.1025-5.8555,1.4188-11.8092,1.3534-17.7588,1.5389A143.3087,143.3087,0,0,1,64.1887,51.8479ZM73.75,91.9388c-.0045-3.6935-2.6483-6.8408-6.5669-9.0354C63.1265,80.6315,58.87,79.8578,54.6,82.3791c-2.2853,1.3494-2.9847,3.3714-2.3674,5.9986A14.908,14.908,0,0,0,65.9105,99.9872C71.0809,100.4559,73.5563,98.2546,73.75,91.9388ZM87.9963,38.5521c7.9725-.8586,14.9172-2.8539,21.0261-7.2215q7.9146-5.6589,15.7386-11.4436c1.9008-1.4088,3.6537-3.0173,5.4741-4.5347l-.3256-.5369c-4.8074,1.2392-9.637,2.399-14.4173,3.7349-8.6308,2.4121-16.8744,5.6358-23.7042,11.7252a19.0448,19.0448,0,0,0-5.5565,7.798c9.9679-7.0224,20.2188-13.4118,32.0662-16.7683C107.8134,25.8908,97.6638,31.0548,87.9963,38.5521ZM76.5652,63.8161c-3.0284.1652-5.5194.3059-7.8087,1.48-3.9527,2.0281-4.91,5.2954-2.6393,9.1163a7.9685,7.9685,0,0,0,3.3537,3.2663,21.3462,21.3462,0,0,0,15.2883,1.2759c2.1189-.5884,3.042-2.09,3.1633-4.2506C88.2985,68.0052,83.4394,63.5419,76.5652,63.8161ZM26.25,163.4454a17.59,17.59,0,0,0,2.5442-.4331c5.0321-1.4511,6.2782-5.0509,3.155-9.1854-2.8929-3.83-6.8975-6.1543-11.2425-7.9423-2.5531-1.0506-5.1242-1.5905-7.41.6537-2.3658,2.3227-2.54,5.0688-1.5433,8.044C13.336,159.3068,19.793,163.4429,26.25,163.4454ZM53.7473,107.36a129.8383,129.8383,0,0,1-18.5406-1.5336c-1.394-.252-1.21.6978-1.3163,1.4916a103.3437,103.3437,0,0,0-.82,18.182A35.7527,35.7527,0,0,0,35.02,136.1459C41.343,120.4085,41.3761,120.3575,53.7473,107.36ZM6.8349,48.0208A374.2063,374.2063,0,0,0,29.4176,99.9846C26.554,80.5853,19.4466,63.0645,6.8349,48.0208Zm-2.52-2.1986c.7568,18.69,15.7049,52.9549,24.3263,55.9532A472.3777,472.3777,0,0,1,4.3153,45.8222ZM80.1943,2.86c-.7293.7755-1.4521,1.5573-2.1889,2.3255-4.7244,4.9255-7.6206,11.0307-11.1172,16.78-4.0242,6.6166-5.0007,13.6163-4.3945,21.0631.04.491-.2777,1.2028.7178,1.5014A102.2407,102.2407,0,0,1,70.065,22.9932C73.0405,16.0906,77.7673,10.1,80.1943,2.86ZM62.6649,182.8716c-.0556.0556-.1655.1232-.1564.1642a1.5616,1.5616,0,0,0,.1562.3353c.0556-.0555.1651-.1221.1563-.1644A1.3248,1.3248,0,0,0,62.6649,182.8716Z"/><path class="cls-1" d="M69.4319,111.4085q.3227.86-.5378.5374c-.0269-.1907-.3152-.32-.0488-.5866S69.2412,111.3815,69.4319,111.4085Z"/><path class="cls-1" d="M68.932,111.9088c.1862.5445.0419.7582-.5373.5363-.027-.1907-.3169-.32-.0495-.5866S68.7412,111.8815,68.932,111.9088Z"/><path class="cls-1" d="M45.4023,29.1536c.0561,1.8624-1.6093,6.6225-2.8844,8.7613C42.0661,34.3254,43.67,31.7169,45.4023,29.1536Z"/><path class="cls-1" d="M16.6949,154.6508c.9112.8884,1.6905,1.853,1.309,3.2363a.8834.8834,0,0,1-1.2206.557,4.4437,4.4437,0,0,1-2.8178-2.9447c-.2261-.7026-.4436-1.5422.35-2.0264.7847-.4786,1.4194-.0752,1.8708.6453q-.1439.151-.2821.3073c-.4974.0458-1.5563-.5956-1.09.7041a4.0135,4.0135,0,0,0,2.4225,2.3927l-.8631-2.5722Q16.5364,154.8026,16.6949,154.6508Z"/><path class="cls-1" d="M16.1865,154.1183q.2538.2667.508.533-.1579.1511-.3206.2989a.4544.4544,0,0,1-.4695-.5246Q16.0427,154.2693,16.1865,154.1183Z"/></svg>