<svg id="Layer_1" data-name="Layer 1" xmlns="http://www.w3.org/2000/svg" viewBox="0 0 91.6325 186.993"><defs><style>.cls-1{fill:#fff;}</style></defs><path class="cls-1" d="M80.4965,54.5552l2.54-2.9569c1.38-1.83,3.1753-3.3251,4.3167-5.3476a2.4206,2.4206,0,0,0,1.3761-1.4018l.6041-.7339.95-1.1089c1.83-.6508,1.3261.7221,1.1544,1.4745C89.8817,51.3,89.1137,58.255,87.82,65.1171c-1.3034,6.9154-2.6791,13.7656-5.3536,20.388-4.32,10.6969-10.6941,20.0929-17.306,29.3772-5.162,7.2481-10.8125,14.1457-15.6,21.6651-.5288.8306-1.2608,1.5351-1.2455,2.6474.1271,9.2535,1.578,18.3536,3.15,27.5338,1.9374-3.1361,3.484-6.42,5.6165-9.3427.4968-.6808.0753-1.0572-.28-1.5048a10.3263,10.3263,0,0,1-1.9885-8.7377,32.5192,32.5192,0,0,1,12.8536-20.59c4.8051-3.4994,10.351-2.5419,13.1172,1.8493a7.2974,7.2974,0,0,1,.699,6.6992,53.217,53.217,0,0,1-15.5627,22.2251,4.8443,4.8443,0,0,1-5.14.98c-1.5837-.6212-2.4684-.2136-3.3537,1.3425-5.5681,9.788-5.5994,9.7611-2.6114,20.6184.5907,2.1464,1.0623,4.3257,1.646,6.7251-1.85-.47-1.417-2.1516-2.2165-2.9755a10.2415,10.2415,0,0,0-4.4635-7.27,91.8076,91.8076,0,0,1-26.5193-29.7339c-1.6174-2.9024-3.337-5.7585-5.1774-8.5244C10.1773,126.6045,5.8334,113.096.4707,100.0521c-.2518-.6126-.9234-1.4375.0068-1.9895.8-.4748,1.4017.2756,1.9547.7216C19.32,112.4011,34.1686,127.6061,42.16,148.4005c2.0833,5.421,4.0991,10.876,6.3,16.2549a9.3744,9.3744,0,0,0,1.2622,3.26c.27-1.2274-.3424-2.2073-.4937-3.26-1.0837-9.0029-2.4-17.9832-2.68-27.0651a4.97,4.97,0,0,0-1.73-3.2,163.0042,163.0042,0,0,1-20.97-28.18c-4.5051-7.8426-6.9862-16.291-8.7518-25.0775a317.0348,317.0348,0,0,1-4.84-38.3614,14.7719,14.7719,0,0,1-.0743-1.9952c.0771-1.2947.7679-1.3389,1.6478-.6775a5.9307,5.9307,0,0,1,1.0235,1.0881C24.6474,56.0774,33.2252,72.4934,36.95,91.2872c2.1826,11.0121,4.6228,21.9736,7,32.9464a14.3588,14.3588,0,0,0,1.653,4.6244c.8488-.5917.5464-1.2994.5985-1.899.0791-.9114.0157-1.84.147-2.7413,1.4616-10.0388-.1986-19.8-2.1064-29.6369-1.4688-7.5734-2.0942-15.3023-3.61-22.9053-1.8571-9.3159.2855-18.5628,1.4356-27.7959a104.9734,104.9734,0,0,1,3.7794-18.5527.48.48,0,0,0,.2169-.6622,5.481,5.481,0,0,0,.8917-2.784,6.8853,6.8853,0,0,0,1.08-3.0972q1.1088-2.9635,2.2177-5.9271l.3363-.8238q1.8158-4.17,3.6306-8.34Q55.3351,1.8808,56.4511.07L57.29,0l.73.8711c.0591.8584-.0208,1.7578.7158,2.4155a4.8512,4.8512,0,0,0,.5778,2.4928q.1146.5565.2293,1.113l.208.8835c.6708,3.8143,1.3576,7.6258,2.0084,11.4434a56.7108,56.7108,0,0,1,.0819,16.039l-.262,1.4018-.1452,1.0944q-.1362.9921-.2725,1.9843a6.3655,6.3655,0,0,0-.4237,3.0178l-.1708.8763a13.9366,13.9366,0,0,0-.4965,4.1489,6.1018,6.1018,0,0,0-.29,2.9609,27.5674,27.5674,0,0,0-.8085,6.4966l-.3678,1.9171L57.296,66.2111c-4.9331,19.9221-9.0729,39.9665-9.62,60.8333.3956-.32.5923-.3972.6244-.5183.1919-.7224.3349-1.4576.514-2.1836,2.7242-11.0469,4.9768-22.2227,10.1779-32.5182,3.3319-6.5956,6.3081-13.3708,9.4438-20.0655q1.3372-2.2227,2.6746-4.4452l.4232-.654,1.6224-2.3352a57.0069,57.0069,0,0,0,4.8215-6.5287A2.6523,2.6523,0,0,0,79.0736,56.33,4.0112,4.0112,0,0,0,80.4965,54.5552ZM40.8283,127.2165l-.0233-.5706-.362.1359.4434.3911.31.4232c.0277-.0719.0912-.1521.0768-.2142C41.2121,127.1177,41.06,127.0472,40.8283,127.2165Zm8.7007,47.36c.2322.2541.4158.8293.8374.4017.2922-.2965-.0388-.7222-.27-1.0407-1.4066-3.73-2.859-7.4429-4.2107-11.1923-3.3275-9.231-6.8211-18.43-11.74-26.9179-7.7627-13.395-18.26-24.46-30.5376-33.855-.1877-.181-.3026-.6006-.6615-.3118-.3133.252-.0356.5358.0736.7962,4.4407,11.0907,8.4009,22.3943,14.8273,32.59,2.5688,4.0754,4.9639,8.2608,7.4145,12.41A93.0347,93.0347,0,0,0,49.529,174.5763ZM56.7414,2.207c-.5136.9713-.9357,1.6842-1.28,2.433C49.0961,18.4846,44.4691,32.8126,42.8186,48.0552c-.8971,8.2844-2.3392,16.545-.63,24.8422,1.2445,6.0414,2.182,12.1066,2.8948,18.2291a72.9611,72.9611,0,0,0,2.3995,12.9962c1.4185-.5345,1.1551-1.7643,1.2965-2.7638.6641-4.6943,1.0227-9.4485,1.9718-14.0828C53.6877,72.9379,56.8119,58.672,58.98,44.1507,61.1014,29.9455,61.0482,16.249,56.7414,2.207ZM89.0459,46.9585c-6.8888,8.3-14.1513,16.4116-19.29,26.009a261.3959,261.3959,0,0,0-13.5419,29.4366c-4.2547,11.0518-7.8333,28.1886-7,31.6152a111.6522,111.6522,0,0,1,9.49-13.55c5.4529-6.8365,10.2667-14.1195,15.084-21.4058C84.19,83.3283,86.4724,65.1872,89.0459,46.9585ZM56.1375,149a14.1269,14.1269,0,0,0,.774,3.7455c1.71,4.4641,5.7244,5.59,9.207,2.4022a54.987,54.987,0,0,0,13.5064-19.5709c1.1611-2.7594,1.1467-5.3488-1.243-7.5434a6.7023,6.7023,0,0,0-8.1009-.9805C61.2514,131.5958,57.9611,139.8456,56.1375,149ZM40.0485,126.477C30.0115,100.5,21.4244,74.14,12.514,47.8712c.9006,10.2346,2.05,20.3623,3.5721,30.475,2.5142,16.7068,10.02,30.8283,20.3418,43.7694C37.6059,123.5924,38.84,125.0243,40.0485,126.477ZM13.4115,44.9358c.7842,5.7671,25.914,76.1912,28.1973,78.7225-.9387-5.075-1.7431-9.7962-2.692-14.4882C35.538,92.4635,32.7326,75.6017,23.9531,60.5183,20.8265,55.1465,17.8076,49.7633,13.4115,44.9358Z"/><path class="cls-1" d="M73.5887,137.75c.1642-2.13,1.9271-4.5255,3.327-4.455,1.1833.0595,1.5106.8454,1.4037,1.89-.1762,1.7234-2.48,4.2952-3.7538,4.1968C73.4847,139.298,73.5305,138.5229,73.5887,137.75Zm3.6559-3.4794a4.0031,4.0031,0,0,0-2.4785,3.8891A5.8821,5.8821,0,0,0,77.2446,134.27Z"/></svg>