<svg id="Layer_1" data-name="Layer 1" xmlns="http://www.w3.org/2000/svg" viewBox="0 0 33.2511 74.5607"><defs><style>.cls-1{fill:#fff;}</style></defs><path class="cls-1" d="M15.0793,60.2978a12.3787,12.3787,0,0,1,.0121-1.7469c.362-2.516.1778-4.3229-3.1384-4.7058C9.6012,53.5735,8.07,51.3865,6.58,49.5908.844,42.6771-.5958,34.5766.2036,25.9046c.2671-2.8971.6853-5.7806,1.0509-8.6682a23.1657,23.1657,0,0,1,1.7012-6.49C6.97,1.6268,14.7375-1.9419,24.2948,1.0183c3.5826,1.11,4.7857,4.3876,6.299,7.2929,2.7488,5.2773,3.0364,10.9977,2.3279,16.7232A83.7881,83.7881,0,0,1,27.2091,46.04a14.8456,14.8456,0,0,1-8.85,8.3067,2.2421,2.2421,0,0,0-1.7408,2.6474A104.2566,104.2566,0,0,0,18.02,72.6484c.1151.6408.6947,1.6946-.3066,1.893-.9265.1835-.9188-.9885-1.1027-1.6447A46.33,46.33,0,0,1,15.0793,60.2978Zm13.2514-37.86-.7127.0289a3.6926,3.6926,0,0,1-.1418-.93c.6484-6.1837-.9628-11.8713-3.7411-17.3159-.3777-.74-.6038-1.434-1.6162-1.6712C14.7365.82,6.6226,4.8072,4.4465,11.8954,2.3741,18.6459.8812,25.5844,1.6219,32.7828c.7243,7.0382,3.1845,13.2441,8.5492,18.042a8.2792,8.2792,0,0,0,9.9235.8889,13.9106,13.9106,0,0,0,6.275-7.4932,116.2394,116.2394,0,0,0,4.1361-14.1146,38.3743,38.3743,0,0,0,.5524-15.8595c-.639-3.25-1.7865-6.3431-4.4014-8.7106C29.1537,11.0738,30.105,16.65,28.3307,22.4382ZM26.266,4.7959l-.1779.1779a1.5593,1.5593,0,0,0,.3354.1561c.0412.0092.1088-.1006.1644-.1561Z"/></svg>