<svg id="Layer_1" data-name="Layer 1" xmlns="http://www.w3.org/2000/svg" viewBox="0 0 68.8588 126.3462"><defs><style>.cls-1{fill:#fff;}</style></defs><path class="cls-1" d="M49.8939,78.9421l-.3994.4244L48.5,80.3943Q39.02,89.2524,30.1824,98.75c-.2264.2437-.4174.57-.6984.7061-4.0164,1.9484-4.0979,5.4722-3.91,9.2463.2235,4.4833.231,8.9785.2781,13.4691a8.8641,8.8641,0,0,1-.5441,4.1743c-1.2772-.5873-.8942-1.7259-.9173-2.6272-.166-6.4845-.31-12.97-.3725-19.4561a5.2558,5.2558,0,0,0-1.3218-3.8478c-4.8764-5.283-7.822-11.6613-10.5529-18.2306A183.3883,183.3883,0,0,1,2.9352,54.2853c-1.0918-4.5805-.6764-9.2738-1.09-13.9063C.9671,30.5245-.1423,20.6781.015,10.7607.0558,8.19.3037,5.6232.4565,3.0545Q.791,1.6171,1.1256.18C2.2433-.37,2.599.4467,2.9686,1.2162c8.2556,17.1871,14.4746,35.086,17.0892,53.9861,1.57,11.3482,2.46,22.8223,3.0426,34.2924.0449.8866-.3865,2.07,1.1476,2.4527a148.97,148.97,0,0,1,4.1291-22.69c-.3946,7.7231-1.9956,15.3147-2.3746,23.0611,1.3863.101,1.2371-.9528,1.4841-1.506,4.2038-9.4131,7.5367-19.3175,13.2326-27.926C48.3433,51.3633,54.4558,38.9288,62.5,27.6842c1.5486-2.1647,3.0845-4.3386,4.65-6.4912.3155-.4339.5987-1.1342,1.3279-.7772.5614.2749.3621.8493.273,1.34C66.57,33.76,66.6279,46.17,62.2232,57.7724q-1.0144,2.6722-2.024,5.3463-1.0318,1.863-2.0658,3.7254-2.61,4.3007-5.2205,8.6015ZM22.6073,97.2574c-.1889-1.2251-.4445-2.4441-.5565-3.6761C21.0119,82.1462,19.85,70.7227,18.803,59.2881,17.4057,44.0222,12.746,29.4847,7.5406,15.1624c-1.4358-3.95-3.6822-7.6362-5.44-11.5907a27.35,27.35,0,0,0-.7439,5.961A144.2171,144.2171,0,0,0,2.129,27.488c1.3436,11.95.92,24.09,4.8024,35.7708A245.0438,245.0438,0,0,0,17.7,90.345,19.8825,19.8825,0,0,0,22.6073,97.2574ZM25.8,100.4593A60.4382,60.4382,0,0,0,36.4575,87.773C43.7027,76.4108,51.26,65.257,56.2738,52.63c2.9148-7.3415,6.1239-14.5658,9.1567-21.861a13.1214,13.1214,0,0,0,1.0981-6.176c-1.0989,1.5747-1.79,2.5969-2.5129,3.5958C56.2949,38.8526,50.5606,50.7375,43.3048,61.7062c-7.2314,10.9317-11.4088,23.43-16.604,35.39A28.0251,28.0251,0,0,0,25.8,100.4593ZM64.879,36.3222c-7.02,17.0519-14.1161,34.0194-25.6177,49.1967C50.3225,81.7708,65.1567,53.0143,64.879,36.3222Z"/></svg>