<svg id="Layer_1" data-name="Layer 1" xmlns="http://www.w3.org/2000/svg" viewBox="0 0 97.5234 186.0072"><defs><style>.cls-1{fill:#fff;}</style></defs><path class="cls-1" d="M49.01,68.8477c2.2766-3.7732,4.5868-7.5265,6.8239-11.323C63.88,43.87,76.1768,34.3875,88.1526,24.5925c.5938-.4857,1.2646-1.3307,2.171-.7618.6989.4387.3613,1.1943.1008,1.8114A294.332,294.332,0,0,1,77.8126,52.8706C71.7552,63.9184,63.2312,72.7686,51.78,78.2371c-5.3256,2.5432-7.5481,6.14-7.7549,11.8639-.1761,4.8742-1.5273,9.679-1.6048,14.6028.0169.22.0323.44.0478.66l.3842-.2587q2.5141-2.0369,5.03-4.0717a1.4818,1.4818,0,0,0,.667-1.4811c-.4276-3.1649,1.1508-5.6214,2.9756-7.94a39.0429,39.0429,0,0,1,6.2324-6.0934A16.1714,16.1714,0,0,1,70.28,81.8581a4.9073,4.9073,0,0,1,4.5467,5.83,13.8963,13.8963,0,0,1-2.6127,5.615,26.3966,26.3966,0,0,1-13.9831,9.9387,8.3291,8.3291,0,0,1-7.2054-.6845c-1.2294-.7912-1.95-.397-3.0491.3342-4.2271,2.8121-6.5942,6.2655-6.0848,11.7045.35,3.7354-.25,7.5678.0634,11.9593,4.7567-9.7574,13.5872-14.6043,20.7674-21.2081,10.0815-9.2722,21.7782-16.4543,31.7958-25.7421.7255-.6727,1.571-2.018,2.6267-1.2786.8827.6181-.0155,1.845-.3231,2.7432-3.1438,9.18-6.7433,18.2348-13.5688,25.32-9.8167,10.19-21.0923,18.2934-35.1366,21.8117-6.08,1.5231-6.1616,1.5458-5.843,7.66.4227,8.1071.5629,16.2363,1.5475,24.377,9.7571-18.2789,25.7729-30.4347,41.0976-43.2419,1.787-1.4935,3.6654-2.8779,5.5061-4.3068.3879-.3011.7884-.7012,1.3293-.4355.7059.3467.4544.9885.3508,1.5408a7.6147,7.6147,0,0,1-.3982,1.4376c-6.8046,16.8825-16.1,32.0324-29.8858,44.2636a39.7324,39.7324,0,0,1-14.8882,8.7661c-1.6111.4892-1.8089,1.1245-1.5968,2.612.6791,4.7611,2.0543,9.4325,1.9178,14.3006a4.3144,4.3144,0,0,1-.2247.8321c-1.0526-.9355-1.0618-2.1445-1.2629-3.2354-.7087-3.8456-1.39-7.6969-2.0145-11.5568a3.5984,3.5984,0,0,0-1.5957-2.5988c-14.3387-10.4532-27.37-22.0438-33.5769-39.4284a4.9178,4.9178,0,0,0-.5087-.8467,3.1735,3.1735,0,0,0-.8-1.918,146.6166,146.6166,0,0,1-4.5993-14.4865,2.8927,2.8927,0,0,0-.4954-1.9968c-.628-2.837-1.271-5.6708-1.873-8.5133-.1456-.6875-.6693-1.5071.1325-2.0643.79-.5491,1.3843.1216,1.9686.577a86.1487,86.1487,0,0,1,29.4854,41.2792,125.7839,125.7839,0,0,0,7.9014,18.8583A11.9848,11.9848,0,0,0,42.3,163.7209c-.2532-3.5508-.4811-6.6957-.6994-9.8413-.0692-.9966-.1771-1.9961-.1574-2.9921.115-5.7924-.2091-11.41-4.8612-15.77a9.188,9.188,0,0,1-1.6908-3.0356c-.8863-1.9977-1.778-3.7385-4.4328-3.9286-1.8106-.13-3.0065-1.7063-3.9625-3.1464-2.9947-4.5113-5.0192-9.3686-4.9508-14.9211a6.5671,6.5671,0,0,1,4.1851-6.2091c2.5779-1.1345,4.5731-.372,6.4972,1.5373,4.2664,4.2338,6.6166,14.3,4.4794,19.8451-.119.3088-.2016.72-.4388.8815-2.7642,1.8829-1.2371,3.5614.0974,5.4226a51.27,51.27,0,0,0,4.1255,5.71c0-1.51.06-3.0219-.01-4.5281a198.7809,198.7809,0,0,1-.1165-20.9652,3.4654,3.4654,0,0,0-1.2452-3.0363c-4.8118-4.4808-9.5961-8.9939-14.2872-13.6-4.7564-4.67-7.1921-10.7341-9.6371-16.7526C10.4788,66.7833,9.7457,54.4519,8.71,42.18a6.0323,6.0323,0,0,1,.0061-1.2474c.1582-1.2639-.5181-3.0612.971-3.5834,1.4906-.5227,2.1766,1.2152,2.957,2.2069C20.2177,49.182,26.2734,59.5842,29.79,71.4431c3.0494,10.2834,6.5837,20.423,9.9066,30.6252a3.1512,3.1512,0,0,0,.9981,1.864c.6759-7.1155,1.64-14.0244,2.8127-20.9032a1.9365,1.9365,0,0,0-.519-1.5819C34.97,70.6625,30.578,58.5138,28.4786,45.2663,26.17,30.6981,26.7808,16.2481,28.6093,1.748c.0834-.6612.001-1.4765.7593-1.6986.8787-.2574,1.3231.547,1.7608,1.1268,3.8723,5.13,6.8806,10.5813,7.73,17.1534a118.3335,118.3335,0,0,0,2.4721,13.1416c2.8045,11.3554,2.3364,22.88,2.4176,34.3905.025,3.5363.0039,7.0728.3144,10.6565,2.839-9,4.4451-18.3531,8.7328-26.8374C51.62,55.9555,49.6247,62.0018,48.419,68.24c-.28.491-.5931,1.2279-.1667,1.4923C48.6855,70.0011,48.7781,69.1926,49.01,68.8477Zm38.0508,48.4745-.593.4079c-4.77,3.2257-8.9548,7.1781-13.2435,10.9692-9.41,8.3186-18.8221,16.6657-25.5025,27.5472A22.3539,22.3539,0,0,0,44.6457,166.28c.9464-.06,1.1987-.6619,1.5681-1.0712,9.1985-10.1914,18.334-20.44,27.5946-30.5745a167.8279,167.8279,0,0,0,13.3359-16.432q.2086-.2566.4162-.5133.0012-.2874.0025-.5746Zm-1.25,4.6513C74.206,137.5056,60.1433,150.9122,47.793,165.8967c1.3033.2171,2.223-.607,3.2425-1.067,5.8309-2.63,10.0652-7.2186,14.5249-11.6052a98.9389,98.9389,0,0,0,20.1684-28.59,4.3664,4.3664,0,0,0,.4988-2.1552c.5-.1968.6353-.6043.2636-.928C86.2363,121.3294,85.9013,121.5972,85.8114,121.9735ZM11.7755,41.4245a.6394.6394,0,0,0-.47-.7139.4459.4459,0,0,0-.3946.1664c-.2335.5121.2892.6362.5147.9148.93,4.4684,3.0514,8.5042,4.6562,12.7255,4.1619,10.9482,8.3272,21.8962,12.6337,32.7879,2.1378,5.4062,5.554,10.1188,8.8639,15.507a7.2843,7.2843,0,0,0-.0113-1.502c-2.897-8.9966-5.9545-17.9446-8.6854-26.991C25.2414,62.2571,19.98,51.09,11.7755,41.4245ZM48.5069,75.3451c3.8653-4.9187,8.4989-9.1308,12.6815-13.76,4.1287-4.5692,7.8641-9.4856,12.0029-14.0436C67.0174,59.043,56.9671,67.3291,48.6922,77.31a2.9341,2.9341,0,0,0,.7993.078,7.9171,7.9171,0,0,0,1.1447-.4692A60.5346,60.5346,0,0,0,76.8814,51.0423,217.9454,217.9454,0,0,0,86.779,30.07c.2666-.6614.6854-1.3387.0332-2.1552a4.1224,4.1224,0,0,0-.8353.4467C76.0605,37.0834,65.31,44.9988,58.3763,56.6243c-3.5687,5.9834-7.8024,11.59-10.3536,18.1536-.4478.1873-1.092.4161-.6244.98C47.822,76.27,48.2386,75.7834,48.5069,75.3451Zm-4.604,52.3027c6.63-2.0872,13.2876-3.9167,19.4065-7.531,14.8437-8.7676,25.8952-20.5782,31.4765-37.1024.2483-.7352,1.16-1.5031.2463-2.38l.2037.39.2449-.2117-.454-.1475a55.41,55.41,0,0,1-7.64,6.7319c-13.2045,9.9416-26.09,20.2634-38.2562,31.4638a20.2393,20.2393,0,0,0-5.7326,8.3185l-.0987.6129ZM2.3753,102.1607c4.3552,26.5042,16.0476,48.1684,38.4357,63.3957-2.2049-4.0635-4.404-8.1147-6.1914-12.3711-4.08-9.7161-7.3188-19.73-12.5138-29.0519C17.1459,115.233,9.7572,108.9949,2.3753,102.1607ZM41.9286,77.67c.7929-20.566.2-40.5765-4.47-60.2884A35.8028,35.8028,0,0,0,30.0261,2.41C26.9682,28.8532,27.7029,54.1263,41.9286,77.67ZM11.1273,45.6373c.6255,9.7789,1.2181,19.3493,4.1116,28.7057,3.8073,12.3108,10.9916,21.8495,21.5346,29.5077-1.1349-1.4556-2.1868-2.6007-3.0092-3.8918-6.2191-9.7629-9.83-20.6876-13.9114-31.4011Q15.487,57.0987,11.1273,45.6373ZM55.29,102.0086c6.1983-.1047,16.0719-7.896,17.5343-13.8365.6173-2.5074-.5548-4.5013-3.1317-4.95a10.2655,10.2655,0,0,0-6.3631.5421A27.5723,27.5723,0,0,0,51.0483,95.3822C48.7815,99.5171,50.5357,101.433,55.29,102.0086ZM23.18,111.62c-.0825,4.9292,2.2769,9.14,4.8379,13.24a4.76,4.76,0,0,0,5.0084,1.9876,3.1122,3.1122,0,0,0,2.4929-2.7828,19.6043,19.6043,0,0,0-4.43-17.2044c-1.9156-2.2591-4.5634-2.0993-6.6979,0C23.0587,108.17,22.9476,109.7765,23.18,111.62Z"/><path class="cls-1" d="M65.7373,94.066q2.0742-2.8522,4.15-5.7034c.2465-.3379.5493-.7055.9913-.3747.3842.2875.2593.7362.1109,1.1342-.9056,2.428-2.9084,3.8253-4.6694,5.45Z"/></svg>