<svg id="Layer_1" data-name="Layer 1" xmlns="http://www.w3.org/2000/svg" viewBox="0 0 102.5623 178.0973"><defs><style>.cls-1{fill:#fff;}</style></defs><path class="cls-1" d="M48.8661,116.68c-.2162-9.5916,1.2256-18.7417,1.95-27.9434a10.1985,10.1985,0,0,0-.3639-4.1939c-2.912-8.4124-3.8318-17.21-4.7693-25.9639-.6905-6.4484,1.1957-12.7181,2.5138-18.9813a170.3065,170.3065,0,0,1,12.8347-37.97c.3074-.6487.43-1.7177,1.3076-1.6206.93.1029.7618,1.1824.8164,1.8743.811,10.2661,2.5438,20.4534,1.49,30.8555-.77,7.5966-.7822,15.2429-1.8738,22.8557a71.4492,71.4492,0,0,1-7.3656,23.4249,31.79,31.79,0,0,0-3.7677,14.8123c-.053,6.7171-1.2519,13.3874-1.1077,20.3487.28-.3431.4971-.4948.55-.6908C54.417,101.1431,62.87,92.1834,71.4244,83.4381A157.1575,157.1575,0,0,1,99.1389,61.0817c.9089-.5821,2.0206-1.8959,3.0435-.9017.9855.9579-.1946,2.1722-.7414,3.1231-4.3446,7.5557-6.9812,15.9-10.97,23.6239a59.1741,59.1741,0,0,1-5.0057,7.4324c-.48.6627-1.817,1.3925-1.0126,2.1824.8417.8263,1.5147-.5166,2.1-1.0668C90.31,91.94,93.9951,88.3288,97.7611,84.8032c.7228-.6767,1.5794-2.1342,2.6149-1.2631.9956.8374-.2589,1.9673-.7747,2.8109a15.3476,15.3476,0,0,0-2.2945,6.7784,28.35,28.35,0,0,1-2.7026,9.5541,31.2175,31.2175,0,0,0-2.3051,7.6331c-.7236,3.9133-2.5127,7.3358-4.3739,10.8022-5.1281,9.5511-12.9536,16.3111-21.92,22.0246A120.4572,120.4572,0,0,1,52.479,151.14a2.1068,2.1068,0,0,0-1.4748,2.4533c.7794,7.7548.7481,15.5791,1.9837,23.2974a4.3822,4.3822,0,0,1-.2605,1.2071,5.0961,5.0961,0,0,1-1.3172-3.1589c-1.1312-6.9146-1.274-13.9178-1.8976-20.8771-.1358-1.5154-.4128-2.3231-2.1332-2.9664-12.1185-4.5313-22.4471-11.3895-30.227-22.1211A205.5645,205.5645,0,0,1,5.7578,111.713c-2.6842-4.6158-3.692-9.96-5.5971-14.9247-.5194-1.3537.2881-1.681,1.4509-1.1612a79.7552,79.7552,0,0,1,7.9222,3.6748c6.5836,3.8627,13.51,7.26,18.7207,13.1123a55.3044,55.3044,0,0,0,4.1716,3.9367c7.3647,6.7122,11.2148,15.5805,15.0361,24.4665.2511.584.4438,1.1931.7378,1.9918.7-.6143.4575-1.1851.4452-1.6885-.13-5.3231-.4867-10.6462.05-15.9683.0739-.732.2092-1.5291-.5378-2.0553-4.8174-3.3934-7.0073-8.7518-9.8564-13.5451-2.4123-4.0583-4.1891-8.4976-6.1958-12.7922a39.4452,39.4452,0,0,1-3.8836-13.8612c-.6284-8.6139-2.276-17.1962-.8833-25.8781a80.5677,80.5677,0,0,1,4.6263-15.7727c.2338-.6162.4328-1.4407,1.249-1.326.785.11.8045.9768.9169,1.6093.5091,2.8632.8368,5.7676,1.512,8.59a44.2556,44.2556,0,0,0,2.5278,7.94c3.0408,6.7248,3.4514,13.9992,4.8912,21.0727,2.3459,11.5245,3.3215,23.2171,4.849,34.8426A3.97,3.97,0,0,0,48.8661,116.68ZM83.7013,98.0612c.2716-.2532.6932-.52.2122-.8928-.4589-.3558-.6539.1-.8647.4077l-.3391.4082c-4.448,4.9882-10.098,8.6056-14.9652,13.1066-4.9606,4.5874-9.8435,9.22-16.4049,11.4939a1.3337,1.3337,0,0,0-.9177,1.3162A133.4121,133.4121,0,0,0,50.5,146.7329c6.3444-13.8591,13.31-26.8038,23.2473-38.0022q4.6209-5.2077,9.46-10.1784Zm-16.12,41.8136c11.9491-7.5406,20.1129-17.8509,23.46-31.6918a1.112,1.112,0,0,0-.87.5263c-7.1019,10.2332-13.9587,20.646-22.1071,30.1118-.26.3027-.5977.5964-.4373,1.0727l-.2094.0242ZM98.3755,63.259a6.4816,6.4816,0,0,0-2.5194,1.5518c-6.285,5.0322-12.8318,9.7086-18.774,15.2063A131.06,131.06,0,0,0,58.399,101.03a46.26,46.26,0,0,0-7.5083,18.7345c1.6076-.513,2.3575-1.6681,3.2267-2.6132Q71.5,98.2506,87.6315,78.2692c3.835-4.767,8.3735-9.0483,11.0967-14.67.1038-.1747.3322-.46.2914-.506C98.7434,62.7834,98.534,62.9707,98.3755,63.259ZM96.444,88.3076C95.31,89.3908,94.2183,90.523,93.0351,91.55,76.552,105.855,63.037,122.432,53.9742,142.43a25.6883,25.6883,0,0,0-2.5134,7.1862c.8417-.3623,1.4466-.5982,2.0305-.878,5.5384-2.654,9.7355-7.02,13.6556-11.4934,8.7855-10.0246,16.2362-21.0928,23.99-31.9146a21.319,21.319,0,0,0,1.2576-2.57,44.5353,44.5353,0,0,0,4.37-14.1686c.1359-.2442.324-.4876.0118-.739ZM57.7571,27.6162c-1.1384,17.9807-3.9958,35.7752-5.6033,53.7263,3.5657-6.8233,7.0045-13.57,8.3511-21.2338,1.9647-11.1817,2.3709-22.48,3.1119-33.7561.3777-5.7486-.6117-11.4519-.9522-17.1773-.1185-1.9946-.271-3.9871-.45-6.6a165.22,165.22,0,0,0-11.31,31.814C47.9208,46.0153,45.7369,57.6079,48.428,69.598c.3636,1.62.5406,3.2814.8465,4.9156.2838,1.5154.6245,3.02.94,4.5294C52.8736,61.8132,54.6564,44.6243,57.7571,27.6162ZM32.5812,43.6483a100.0616,100.0616,0,0,0-3.1324,9.7534c-2.3994,10.0517-.4973,20.027.3358,30.0219a30.5675,30.5675,0,0,0,2.5827,10.1009c2.2585,4.9968,4.4071,10.0545,6.9265,14.9186a78.6209,78.6209,0,0,0,7.5339,12.0238c.2433-.3778.42-.5275.3969-.634-1.9624-9.0489-2.32-18.3007-3.5-27.4477A269.8,269.8,0,0,0,32.5812,43.6483ZM4.1222,98.6521c14.0236,15.7707,26.7694,32.3191,42.3767,46.2394C45.8578,130.3958,20.0807,102.0707,4.1222,98.6521Zm-.9745,1.1934a49.5588,49.5588,0,0,0,6.1164,14.5531C15.86,125.5268,23.69,135.4728,34.1159,143.2927c3.4232,2.5676,7.4428,3.1217,11.5358,4.1408C30.5419,132.3727,16.9809,116.0411,3.1477,99.8455ZM54.897,118.7294c2.1586-.1105,3.86-1.5353,5.36-2.968,5.5383-5.2895,11.6635-9.8893,17.3645-14.97,8.2521-7.3546,13.4475-16.796,17.1878-27.086a1.2166,1.2166,0,0,0-.4415-1.613C82.0827,88.4159,68.5536,103.6507,54.897,118.7294Zm-8.0207,26.785-.1422-.1733c-.0485.05-.1331.099-.1351.151s.0784.1073.1227.1611Z"/></svg>