<svg id="Layer_1" data-name="Layer 1" xmlns="http://www.w3.org/2000/svg" viewBox="0 0 21.897 126.3096"><defs><style>.cls-1{fill:#fff;}</style></defs><path class="cls-1" d="M20.1633,66.4017c-1.8294,19.9379-4.7688,39.8641-.7252,59.8853-.5507.1284-.8239-.3127-1.0068-.7835-2.7777-7.1481-6.7594-13.687-10.2878-20.4578-3.1753-6.093-3.1975-13.03-4.9227-19.515C-.1133,72.9975-.4754,60.2568.42,47.4185l.2229-2q3.1551-10.95,6.31-21.8994l1.2858-4.081a.29.29,0,0,0,.1937-.3975q.131-.5387.2621-1.0774a34.3911,34.3911,0,0,0,2.2284-6.4148q.6517-1.78,1.3034-3.56,1.75-3.994,3.5-7.9881l.69.0555a13.7221,13.7221,0,0,1,.7205,1.8357A168.9263,168.9263,0,0,1,21.1171,57.8c-.23,2.3758-.6119,4.7369-.9235,7.1048Zm-5.92-57.0679a4.8172,4.8172,0,0,0-1.3993,2.5476C10.2649,18.9128,8.64,26.2692,6.02,33.2585.9442,46.8012.9369,60.6753,2.7948,74.62c1.1059,8.3005,3.15,16.4874,5.007,24.6723,1.067,4.7029,3.8377,8.7,6.1042,12.9034a3.01,3.01,0,0,0,.049-1.53c-2.7342-9.0937-3.185-18.521-3.8077-27.8821-.8254-12.4091.5941-24.7756,1.73-37.11C12.9751,33.7446,12.9292,21.759,14.2428,9.3338Zm.5184,99.3374.6809-.0319c0-.6248-.0246-1.2507.0036-1.8742.3835-8.4694.559-16.9552,1.2215-25.4028.7148-9.113,2.1721-18.171,2.7867-27.2879.7433-11.0249,1.4712-22.0989-.4521-33.1018-.8217-4.7008-1.7823-9.3772-2.68-14.0647a37.6889,37.6889,0,0,0-1.1335,6.59c-.8606,6.2949-.0289,12.6564-.66,18.9315-1.1572,11.5071-1.9631,23.0351-2.6,34.5753A176.0613,176.0613,0,0,0,14.7612,108.6712Z"/></svg>