<svg id="Layer_1" data-name="Layer 1" xmlns="http://www.w3.org/2000/svg" viewBox="0 0 68.7924 164.3344"><defs><style>.cls-1{fill:#fff;}</style></defs><path class="cls-1" d="M34.9943,164.3344c-.9836-.5805-1.1259-1.5718-1.3784-2.499a44.7374,44.7374,0,0,1-1.7079-12.8229,8.6092,8.6092,0,0,0-1.4661-5.1226c-2.3372-3.6369-4.4623-7.4115-6.6229-11.1594-.62-1.0754-1.1765-1.59-2.5371-.9837a6.6153,6.6153,0,0,1-6.6646-.7325c-8.051-5.5011-13.4138-12.8079-14.5362-22.7-.6943-6.1191,3.1506-11.2806,8.343-11.6874a7.7981,7.7981,0,0,1,6.506,2.5315c6.9329,7.17,11.2018,15.8574,10.1006,25.6682-.6367,5.6716,1.5371,9.3709,3.9262,13.5436a15.6775,15.6775,0,0,0,2.82,4.2357c.2629-3.9852.5121-7.65.7453-11.3166.6811-10.7081,1.1963-21.4288,2.3644-32.1a7.7556,7.7556,0,0,0-1.265-5.2041c-2.45-3.85-4.7431-7.8038-7.3012-11.5792C17.5929,69.5255,14.351,54.9475,12.92,39.791a129.4812,129.4812,0,0,1-.2428-18.21c.3017-6.4916-.7166-12.9712-.1556-19.461.0644-.7465-.3408-1.8691.7691-2.0983.8578-.1771,1.2559.7685,1.5724,1.3877,4.81,9.408,11.371,17.8008,15.8437,27.4069,2.2192,4.766,2.5915,10.0166,4.1376,14.9613,1.1187,3.5775,1.0586,7.43,1.7275,11.0664,1.2,6.5208.4367,13.071,1.2756,19.5662.8183,6.3358-.659,12.5979-1.1869,18.8908-.9109,10.8578-2.0233,21.702-2.4065,32.599a5.5538,5.5538,0,0,0,.1568,1.6983c1.55-5.4178,3.5146-10.6809,5.1444-16.0414,3.2313-10.6278,8.0188-20.61,12.3843-30.7644,4.0063-9.319,8.2432-18.5394,12.4258-27.7818a51.7245,51.7245,0,0,1,2.5285-4.5833c.2756-.474.5768-1.1475,1.3059-.872.6744.2547.64.937.5328,1.51-.9312,4.9585-.2086,9.975-.53,14.941-.5267,8.1291-.5464,16.3569-2.4833,24.3079-3.0185,12.3915-8.4509,23.5663-17.4206,32.8993-4.377,4.5543-8.6079,9.2331-13.6749,13.0476-1.3616,1.0249-1.1906,2.55-1.2079,3.8668-.1063,8.0474-.5433,16.1274,1.6234,24.028C35.2187,162.8109,35.6342,163.53,34.9943,164.3344ZM48.24,118.8963c.1222-.43.763-.73.3272-1.3008,1.15.3428,1.3264-.7617,1.8238-1.2957,6.5832-7.0666,10.0414-15.7717,12.9437-24.7694,2.24-6.9446,2.4049-14.1546,2.7688-21.37-1.6213,4.602-3.7968,8.9674-4.8882,13.7577-2.6876,11.7964-6.122,23.3335-12.5879,33.7356-.1056.401-.2112.8019-.3078,1.1969l-.0879-.0269ZM34.7578,93.844C32.41,63.4661,23.9914,35.2183,14.0441,7.3164c.3069,7.4362-.2169,14.8151-.1465,22.19.1245,13.0453,1.7524,25.8946,6.4591,38.1707C23.8711,76.8436,29.7692,84.7139,34.7578,93.844ZM66.6027,51.4792C54.6933,78.2217,41.92,103.9166,34.5218,132.5274c3.4843-2.91,6.4465-5.3788,8.6-8.53A102.6551,102.6551,0,0,0,57.81,92.471c1.61-6.0155,2.7168-12.1679,5.1655-17.9654A46.5233,46.5233,0,0,0,66.6027,51.4792ZM24.0118,123.8371c.358-3.4123-.87-6.547-1.8188-9.6933a30.8117,30.8117,0,0,0-8.4866-13.89c-3.5271-3.2854-8.4127-2.3178-10.6752,1.9522a10.7273,10.7273,0,0,0-1.2847,5.7626c.5727,9.8131,6.0527,16.5486,13.7724,21.823a5.6011,5.6011,0,0,0,6.7783-.2515C24.356,128.1,23.8443,125.8567,24.0118,123.8371ZM35.517,87.007a13.4394,13.4394,0,0,0,.8854-5.5676c-.5913-11.2553-.1988-22.5818-2.1616-33.7412C32.3622,37.017,29.4275,26.7274,23.0421,17.6866A58.273,58.273,0,0,1,15.9456,5.3934C15.7121,4.7943,15.6,3.868,14.533,3.9743,24.0557,31.0228,32.6362,58.2765,35.517,87.007Z"/><path class="cls-1" d="M8.4162,111.0549c-.1534.8471.4666,2.3846-1.0655,2.7192-1.3633.2978-1.938-1.0149-2.4458-2.0585a7.16,7.16,0,0,1-.8794-5.25,2.123,2.123,0,0,1,1.8477-1.7746c1.0382-.0659,1.3779.8127,1.71,1.5456A11.6125,11.6125,0,0,1,8.4162,111.0549Zm-.87-.2855a11.8808,11.8808,0,0,0-.8555-3.8216c-.1957-.3732-.4216-.742-.914-.6554-.4839.0852-.644.5186-.6911.921a6.85,6.85,0,0,0,.8324,4.07c.2431.4566.3837,1.2708,1.1552,1.0231C7.7809,112.08,7.4817,111.3432,7.5463,110.7694Z"/></svg>