<svg id="Layer_1" data-name="Layer 1" xmlns="http://www.w3.org/2000/svg" viewBox="0 0 21.7065 126.5228"><defs><style>.cls-1{fill:#fff;}</style></defs><path class="cls-1" d="M13.0348,119.3518c-.434,2.3722.6532,4.8444-.472,7.171l-.9291-.3967c-.738-6.9732-.4446-13.9574-.2321-20.9413a5.6379,5.6379,0,0,0-.4474-2.9167A65.69,65.69,0,0,1,5.0786,87.1458C2.5149,76.37-.1518,65.6246.0067,54.3962c.1148-8.131,1.5314-16.0384,3.1542-23.9494C5.1152,20.92,6.9792,11.3753,8.8905,1.84,9.0328,1.13,8.9936.2052,9.9021.0226c.8009-.1609,1.1745.5682,1.3834,1.1927,3.3172,9.9224,8.8109,19.0533,9.8472,29.821a126.4249,126.4249,0,0,1-3.8369,45.0085c-3.4951,13.1034-3.9964,26.4249-4.5074,39.8006a17.5789,17.5789,0,0,0,.2444,2.4681A.9292.9292,0,0,0,13.0348,119.3518ZM10.1765,2.6914c-.2276.8108-.3969,1.2813-.49,1.7663C7.81,14.1771,6.0876,23.9288,4.0347,33.6106,1.8246,44.0338.669,54.5378,2.1043,65.099a145.8386,145.8386,0,0,0,5.693,25.9875c1.03,3.1308,2.2536,6.1978,3.5184,9.6473a7.042,7.042,0,0,0,.709-3.2918c.3135-3.563.2539-7.2053,1.0033-10.6734a89.1535,89.1535,0,0,0,1.5947-18.367,553.5657,553.5657,0,0,0-2-55.7449C12.31,9.34,11.9758,6.0492,10.1765,2.6914ZM14.1345,14.35c.5028,6.2116,1.1307,12.4162,1.473,18.6366.338,6.143.4181,12.3012.5547,18.454.1358,6.12-.0966,12.2521.6083,18.3579,2.4618-12.1912,3.9587-24.4489,2.7736-36.8916C18.9284,26.4419,17.7692,20.1,14.1345,14.35Z"/></svg>