<svg id="Layer_1" data-name="Layer 1" xmlns="http://www.w3.org/2000/svg" viewBox="0 0 29.8466 65.9596"><defs><style>.cls-1{fill:#fff;}</style></defs><path class="cls-1" d="M6.9254,65.5223l-.03-.1026q-.0163-.4815-.0325-.963c.9585-5.3185,1.8083-10.6505,2.3806-16.0292A2.0726,2.0726,0,0,0,7.715,45.8482a9.8971,9.8971,0,0,1-5.95-6.6715c-1.7608-6.6526-2.45-13.42-.9159-20.2541A26.2666,26.2666,0,0,1,12.3026,2.3046L17.2141.292l.965-.1951L19.1768,0l1,.0278,2,.4241,1.4372.7169c4.7915,3.2513,6.2936,7.8828,6.23,13.5017-.1,8.8526-2.2163,16.9338-7.6841,24.0281a21.1518,21.1518,0,0,1-9.76,7.4732c-1.2859.4491-1.0594,1.2463-1.087,2.1162A65.14,65.14,0,0,1,8.217,64.8629C7.9652,65.7068,7.9639,66.4687,6.9254,65.5223ZM2.04,26.6792a56.6825,56.6825,0,0,0,1.112,10.6443,9.972,9.972,0,0,0,3.7687,5.9917,5.3667,5.3667,0,0,0,6.0742.75,17.6355,17.6355,0,0,0,5.47-3.8665c7.5714-8.4347,10.4051-18.4265,9.0707-29.544-.8806-7.3366-7.1748-10.3033-13.6032-6.7a18.4513,18.4513,0,0,0-2.6657,1.8317C4.6786,11.1931,2.0206,18.3473,2.04,26.6792Z"/><path class="cls-1" d="M23.3157,14.2692a12.8875,12.8875,0,0,1-1.3836,5.8263c-.2271.4966-.4242,1.2507-1.1619,1.0326-.7794-.23-.484-.9575-.351-1.493a38.6525,38.6525,0,0,0,1.1692-6.8734c.0428-.6749-.2208-1.7979.84-1.7511.875.0385.8521,1.0727.8836,1.82C23.33,13.2455,23.3157,13.6619,23.3157,14.2692Z"/></svg>