<svg id="Layer_1" data-name="Layer 1" xmlns="http://www.w3.org/2000/svg" viewBox="0 0 76.9766 171.7037"><defs><style>.cls-1{fill:#fff;}</style></defs><path class="cls-1" d="M57.6433,12.9764c-.3373,4.7344.3124,9.44.4444,14.16a70.0171,70.0171,0,0,1-1.6759,15.4319C54.0706,54.6353,48.6686,65.5247,44.587,76.9106a62.8706,62.8706,0,0,0-3.8059,21.7249c.0218,6.2373-.2334,12.48-.0113,18.7742,5.6517-23.21,17.795-42.8133,33.1122-60.5965.8688.2818.8306.74.73,1.1169C71.0337,71.2936,68.3728,84.9286,63.11,97.7977a68.3534,68.3534,0,0,1-16.3118,23.97c-1.145,1.0873-2.5468,1.7969-3.7149,2.8758a4.1562,4.1562,0,0,0-1.4536,4.13,165.7358,165.7358,0,0,0,5.0593,21.4418,48.2346,48.2346,0,0,1,6.426-12.389c.6164-.8426-.0336-1.4072-.3472-2.0256a10.7047,10.7047,0,0,1-.5793-8.7238c1.9725-5.5577,5.1195-10.2474,10.2565-13.4107a11.1306,11.1306,0,0,1,9.3441-1.2889c4.1334,1.2046,5.5572,3.3094,5.1082,7.5686a13.7338,13.7338,0,0,1-1.7359,5.1688c-2.65,4.85-6.5036,8.6-10.8019,11.959a8.5428,8.5428,0,0,1-8.6987,1.3851c-1.2343-.4614-1.8477-.2211-2.3408.8605a3.8912,3.8912,0,0,1-.2616.425c-6.6049,10.5962-6.7173,11.7647-1.9954,23.312,1.1211,2.7415,2.3555,5.4367,3.753,8.6474-2.2548-1.29-2.6858-3.2138-3.4754-4.8183a5.4869,5.4869,0,0,0-2.8523-2.9332c-2.8534-1.2036-5.2062-3.2454-7.8269-4.843l-3.8969-2.1359a42.4639,42.4639,0,0,0-4.1953-2.6881c-7.108-3.4958-12.1763-9.0594-16.55-15.5135a121.9085,121.9085,0,0,1-11.713-21.414,31.4038,31.4038,0,0,1-2.3353-8.8868A136.6509,136.6509,0,0,0,.1955,94.1116C.07,93.5238-.319,92.7287.5521,92.3692c.5509-.2273.9338.2568,1.19.6785,3.4289,5.651,8.7649,9.5279,13.2082,14.2349a49.6551,49.6551,0,0,1,6.6791,8.6962c4.2985,7.2383,9.8525,13.6118,14.296,20.7548,3.9582,6.363,6.646,13.3757,10.7072,19.83-.2982-1.5635-.475-3.162-.915-4.6845A165.5661,165.5661,0,0,1,40.24,128.326c-.3766-2.7625-2.9423-4.03-4.8083-5.4393-12.3772-9.3446-18.704-22.4086-23.1225-36.7029a25.6482,25.6482,0,0,1-1.0935-7.6417c.0221-9.5-.9546-18.9424-1.4894-28.41-.0848-1.5014-.5382-3.9.8992-4.2476,1.4973-.3622,1.8942,2.0387,2.2479,3.363,1.5981,5.9838,5.4969,10.7892,8.16,16.2216,3.2073,6.5433,5.005,13.5685,7.727,20.2573,3.9891,9.8024,7.6134,19.701,9.7866,30.0843.0436.2083.244.3838.4012.62.7409-.5189.4091-1.2056.407-1.7843-.0309-8.65-.3116-17.3068.7858-25.9246a5.34,5.34,0,0,0-.0387-2.465c-2.8438-7.3378-3.4221-15.1573-4.8323-22.7872a68.7545,68.7545,0,0,1-.61-20.1076C35.883,32.2146,41.182,22.9029,47.1425,13.8206q4.176-6.3632,8.4208-12.6812C55.896.6423,56.0681-.277,56.9622.0806c.6157.2462.55.9632.5685,1.5411.0417,1.327.0693,2.6545.1028,3.9817a7.8427,7.8427,0,0,0-.0194,3.4012,6.5211,6.5211,0,0,0,.0224,3.1529Q57.64,12.5669,57.6433,12.9764Zm-3.21-7.6036c-4.3222,5.508-7.7388,11.602-11.3324,17.5777A53.8548,53.8548,0,0,0,35.51,52.1018c.136,9.1794,2.2817,18.0693,3.9161,27.0323.0511.28.1308.6364.6952.54-.1164-8.6688,1.5791-17.1442,3.12-25.639a332.1021,332.1021,0,0,1,8.5543-37.28c1.1086-3.6534,2.0946-7.344,3.1361-11.0177.1385-.3675.2975-.7356-.0287-1.091ZM46.5954,160.6807C35.3466,136.81,21.5091,114.8526,1.8985,96.4178,4.822,126.3641,18.952,148.1376,46.5954,160.6807ZM41.4529,123.932a56.7261,56.7261,0,0,0,13.07-13.5191c5.9129-8.2489,8.7375-17.8448,12.0547-27.239,2.3282-6.5933,3.1929-13.5522,5.227-20.2145.06-.1953-.0792-.451-.2859-1.4676C56.6149,80.3953,45.1823,100.2506,41.4529,123.932ZM11.2772,48.95c-.4885,27.5087,9.3192,50.985,26.0016,71.9488A92.4334,92.4334,0,0,0,31.88,98.0405c-2.0563-5.532-4.6189-10.9186-6.1771-16.584C22.54,69.9575,15.8437,60.1064,11.2772,48.95ZM41.2146,80.3494l.5939.1129c3.5337-9.3043,7.3059-18.5268,10.5329-27.9362,3.1313-9.1306,5.53-18.4679,4.2262-28.3251a42.2655,42.2655,0,0,1-.041-5.4884q-.0016-6.2632,0-12.5264l-.6926-.0186C48.9363,30.5028,43.1727,55.0576,41.2146,80.3494Zm17.9472,57.567a5.1626,5.1626,0,0,0,3.3457-.9484c5.1271-3.703,9.4757-8.1071,12.26-13.88a10.471,10.471,0,0,0,.9907-4.3442,4.5529,4.5529,0,0,0-3.4047-4.8793,10.5539,10.5539,0,0,0-9.7455,1.3042,21.2471,21.2471,0,0,0-9.541,14.0624C52.0382,134.2463,54.6412,137.8689,59.1618,137.9164ZM33.4243,118.7536c-4.2506-6.4888-8.9712-12.6631-11.9936-19.9131C18.44,91.6651,15.138,84.6214,13.3282,76.622,10.9637,85.4767,24.31,113.9057,33.4243,118.7536ZM71.816,61.9321c.06-.0555.1632-.1075.1679-.1673s-.089-.1274-.14-.1915c-.06.0554-.163.1074-.1678.1673S71.7655,61.868,71.816,61.9321Z"/><path class="cls-1" d="M72.086,123.4251c-.7944,1.2265-1.2342,1.58-1.7531,1.2856-1-.5675-.3794-1.3493-.0726-1.9244a34.5216,34.5216,0,0,1,2.3435-3.7891,1.264,1.264,0,0,1,1.7742-.383c.5731.3791.51.9972.2865,1.5672-.5372,1.3679-.8712,2.9071-2.6343,3.298q.0741-.487.1468-.9719a4.8425,4.8425,0,0,0,1.8513-3.0682c-1.4633.8467-1.4633.8467-2.2228,2.7178C71.2044,122.7333,71.068,123.2067,72.086,123.4251Z"/></svg>