<svg id="Layer_1" data-name="Layer 1" xmlns="http://www.w3.org/2000/svg" viewBox="0 0 99.168 240.2071"><defs><style>.cls-1{fill:#fff;}</style></defs><path class="cls-1" d="M74.7168,93.6606l-2.5291,1.8615-.3874.3125c-5.4966,4.02-11.492,7.3393-16.6245,11.8761a5.8264,5.8264,0,0,0-2.1166,4.0386c-1,10.0231-1.38,20.0777-1.769,30.7125,2.0809-2.8051,4.5788-4.4673,6.8891-6.3513a1.1227,1.1227,0,0,0,.335-1.3c-1.87-8.5144,2.3735-14.6647,8.271-19.8062A18.2162,18.2162,0,0,1,81.2008,110.59l3.044.8858a10.1907,10.1907,0,0,1,2.6695,2.4908q.1518.309.3031.6181l.6282,3.75q-.3117,1.9833-.6233,3.9666-.4854,1.2575-.9709,2.5151a2.9758,2.9758,0,0,0-1.0292,1.8417l-2.0435,2.847-2.0238,2.13a1.3511,1.3511,0,0,0-.9683.8036l-5.9692,3.6291-3.99,1.7956c-3.5741,1.1022-7.0888,1.6031-10.336-.9427-.628-.4924-1.0691.0526-1.5187.3859-4.8669,3.6083-8.5645,7.82-7.4624,14.4993l-.0706,3.9988-.0271.9988-.0182.9991q-.01,1-.0206,1.9991a11.5094,11.5094,0,0,0-.11,3.99l-.05,1.0209-.0771.965a.3242.3242,0,0,0-.0211.4429,117.2545,117.2545,0,0,0-.2489,12.5226c.7-.7112,1.17-1.1648,1.8542-.6335a.8194.8194,0,0,0-.2133,1.09l.7249-.5307c7.5218-5.9089,14.9081-11.9822,22.0867-18.304,7.57-6.6666,14.7238-13.7054,20.3228-22.1965,1.6909-2.5644,2.0223-5.3131,2.2482-8.5976-17.1922,13.91-34.4184,27.2241-44.5075,47.0648-.2712-2.4666,1.2446-4.3311,2.4606-6.3215q1.2292-2.0122,2.465-4.0206l.9891-1.4.778-1.1441,2.4219-3.2841a1.611,1.611,0,0,0,.9122-1.1611,4.1564,4.1564,0,0,0,1.498-1.8286c.94-.4351.9541-1.3115,1.0288-2.1588a.8094.8094,0,0,0,.465-.0892c.98.0076,1.2715-.7915,1.6915-1.44l2.9409-3.1544,5.9574-5.4779,2.1322-1.7528a11.35,11.35,0,0,0,3.0569-2.501l10.4144-8.8747,2.5707-2.0868,1.7233-1.6462c.9623.3769,1.2967-2.7464,2.6-.4661l-.5616,4.4948c-1.0487,4.1575-.969,8.5422-2.5381,12.5949l-.1355.11a8.26,8.26,0,0,0-1.5728,2.71C87.3575,159.7918,75.8976,166.69,65.094,174.2905a128.4911,128.4911,0,0,1-13.06,7.8146c-1.1.593-1.8359,1.1705-1.71,2.65.9081,10.6907,1.0673,21.4511,3.0447,32.04a9.0372,9.0372,0,0,0,.7826,2.4885,27.9262,27.9262,0,0,1,5.099-8.15,1.6379,1.6379,0,0,0,.2208-1.1718c-.4973-4.4776,1.4457-8.072,4.0964-11.4092a28.27,28.27,0,0,1,7.4286-6.9673,15.202,15.202,0,0,1,8.8534-2.3808c5.4749.3208,8.645,4.6049,6.6518,9.72-3.329,8.5435-9.8106,13.8908-18.5618,16.3464a6.5513,6.5513,0,0,1-7.2226-2.244c-.654-.83-1.0493-.95-1.6011-.0415-2.6109,4.2967-5.8111,8.3106-4.1329,14.0051,1.2588,4.2711,1.9388,8.7127,2.9058,13.2152-1.5148-.2167-1.5124-1.3936-1.7839-2.2436a72.8627,72.8627,0,0,1-2.6832-11.1561,2.7742,2.7742,0,0,0-2.0341-2.4209c-7.7623-3.2372-15.5673-6.4447-20.9576-13.4118a12.7565,12.7565,0,0,0-1.9411-1.9405C16.259,198.8432,8.517,185.3413.9555,171.7134.5222,170.9324-.6,169.955.4088,169.078c.8792-.7644,1.8715.1818,2.712.6456a106.682,106.682,0,0,1,35.166,30.4534c4.6,6.2763,9.7172,12.1766,13.5047,19.0876-.29-5.1085-1.392-10.0457-1.68-15.087-.3276-5.7328-.9239-11.45-1.2821-17.1813a4.3748,4.3748,0,0,0-1.69-3.4076,34.7022,34.7022,0,0,0-3.2432-2.7293c-8.7111-5.3955-12.9271-14.1224-16.9114-22.9411-3.7115-8.2151-4.2924-17.233-6.0917-25.9349a114.3246,114.3246,0,0,1-2.1784-13.7972c-.2751-3.3571-2.3414-5.9937-3.5171-8.9875q-.85-2.3525-1.7006-4.705a44.22,44.22,0,0,0-1.63-7.6454,6.7835,6.7835,0,0,0-.5879-2.9972,17.2753,17.2753,0,0,0-1.1549-5.4732,7.6345,7.6345,0,0,0-.7814-3.0192c.7849-2.0922,1.5343-.3376,2.2965.0212,1.8253,2.366,3.6339,4.7451,5.4787,7.0959,8.45,10.7672,16.2943,21.884,20.9735,34.9279,1.5989,4.4572,3.3856,8.8578,5.3127,13.1835,1.6232,3.6434,3.5741,7.1408,5.38,10.7028a1.3891,1.3891,0,0,0,.5516-1.06c.7189-12.2084.8276-24.4568,2.358-36.6106a2.4242,2.4242,0,0,0-1.5072-2.7544,18.9507,18.9507,0,0,1-8.658-9.3573C38.8813,95.22,35.2205,89.4306,32.706,83.0705c-1.2451-3.1493-3.0692-6.07-4.6313-9.0938q-.7441-1.7-1.4882-3.399a3.7181,3.7181,0,0,0-1.1612-2.2031c-1.4222-6.1552-5.2859-11.4278-6.3814-17.7108a21.7065,21.7065,0,0,0-1.647-5.7322c-.22-.4594-.773-1.0676-.0207-1.513.6367-.3769,1.1068.196,1.5219.5515a39.5285,39.5285,0,0,1,3.3141,3.0234C33.9367,59.6121,41.6438,74.4291,46.3288,90.9263c1.2924,4.5508,2.8685,9.0233,4.3991,13.5028.315.9219-.5239,2.561,1.3554,2.6327.925-8.2879,2.4249-16.4733,3.82-24.6745.2487-1.4612.56-2.9123.7855-4.3767.2577-1.6714.16-3.098-1.3673-4.3983C47.2575,66.7468,44.9029,56.89,41.8664,47.4117c-1.9833-6.19-2.2947-12.7607-4.2641-18.9588-.8554-2.6924-1.6814-5.3954-2.4476-8.1141-.1907-.6769-.843-1.6984.646-1.8768C38.359,22.9459,41.6,26.97,44.4464,31.2472,50.2715,40,53.7109,49.794,55.643,60.1216c.5143,2.7494,1.1633,5.4736,1.8531,8.6878,1.4773-2.0417.9976-4.2076,2.07-6.0884.88,1.6461-.0965,3.1136.2794,5.2439C68.5812,53.2885,80.077,41.7527,92.6726,30.8686c.0869.57.25.9139.1629,1.1741-2.5336,7.5787-4.0449,15.5444-8.9647,22.1935C77.4735,62.8823,69.72,69.8378,59.84,74.2678c-.6869.3079-1.3527.3841-1.51,1.3638-1.36,8.4523-2.7754,16.8957-4.1626,25.3437-.0233.1418.0983.3074.1924.5767,1.1537-.5483,1.5561-1.7019,2.067-2.6483C62.9353,86.8459,72.1585,77.3684,83.4708,69.72a87.7958,87.7958,0,0,0,14.3411-11.602c.1494-.1552.4293-.1848,1.3561-.5579A107.6721,107.6721,0,0,1,91.0493,75.88,64.3321,64.3321,0,0,1,78.1448,90.9888Zm5.2661-43.7667-.3017-.6252c2.9956-4.2276,7.3661-7.4965,9.2956-13.2381C78.2086,45.1123,69.1439,54.8382,61.7025,66.9569c2.0765-.8285,2.6053-2.308,3.7843-3.014l.42.5443q-2.8924,3.596-5.7837,7.1932a3.6362,3.6362,0,0,0-.2447.5116c.2548.17.4207.0253.5276-.22,14.3642-5.5216,28.9041-24.7456,28-31.8623A60.4773,60.4773,0,0,1,79.9829,49.8939ZM45.14,148.9552l.4839.7441c.3305-.378.165-.7544-.0036-1.1308-1.6806-3.6134-3.6373-7.0852-5.1325-10.8-3.1911-7.9286-5.86-16.0647-10.0267-23.6048-5.0957-9.2207-11.6575-17.39-17.8485-25.8317-.3552-.4844-.6368-1.2574-1.6831-.8048,2.5722,7.3646,2.6378,15.4165,6.2855,22.9815.71-2.4382,1.3669-1.7349,2.106-.4207a99.49,99.49,0,0,0,6.9552,10.4459,33.4492,33.4492,0,0,1,5.8361,10.94C34.1842,139.0291,39.5538,144.0564,45.14,148.9552Zm6.349,73.9014c-5.2664-10.18-12.2092-19.0221-19.2833-27.7195A99.6757,99.6757,0,0,0,3.5621,171.3688a.7033.7033,0,0,0-1.0144.0863c.2519.5108.5248,1.0785.81,1.64,3.7405,7.3651,8.787,13.9154,13.088,20.9316a31.793,31.793,0,0,0,4.914,5.9589c4.6261,4.5532,9.2613,9.0973,13.8575,13.68C39.806,218.2418,45.8328,220.1994,51.489,222.8566ZM86.2517,119.539c-.024-5.9146-2.5415-8.0019-7.9493-7.7743-11.2542.4737-18.7706,10.9444-19.2432,19.8363-.1806,3.3978,1.8378,5.5213,5.25,5.63,5.3419.17,9.7932-2.2852,13.9353-5.2343C82.9012,128.6809,85.9257,124.2512,86.2517,119.539ZM54.9428,106.2027c6.5985-4.89,13.1722-9.8149,19.8025-14.6619A57.5364,57.5364,0,0,0,91.2482,72.7543,63.8092,63.8092,0,0,0,96.22,61.7836C79.2547,74.0571,62.26,85.585,54.9428,106.2027ZM66.3065,214.2538c6.1148-.0062,16.533-8.3757,18.8317-15.1287,1.8391-5.4031-1.3946-9.3673-7.0828-8.683-7.6926.9255-16.2127,9.1491-17.4156,16.8095C59.988,211.4028,62.2984,214.2578,66.3065,214.2538ZM29.2321,63.9216a1.2871,1.2871,0,0,1,1.5409.8492c5.7394,9.4591,9.1281,19.9211,12.8856,30.2226a31.1522,31.1522,0,0,0,4.5282,8.611c-5.19-21.289-13.0472-41.2438-28.644-57.3438a53.2332,53.2332,0,0,0,3.3358,11.7408c6.3529,15.02,13.4448,29.6956,20.724,44.2827a16.4569,16.4569,0,0,0,3.5444,4.7943c.4245.3915.6731,1.5566,1.62.769.86-.7154-.0969-1.3222-.4047-1.7171a36.0437,36.0437,0,0,1-5.524-9.4453C38.7034,85.6774,35.4414,74.3157,29.2321,63.9216ZM45.2786,177.0955a3.1941,3.1941,0,0,0-.0069-.7243c-3.9794-16.6217-9.93-32.592-16.2671-48.415a31.3952,31.3952,0,0,0-6.4214-9.6523c-.1309.7648-.2789,1.0506-.1939,1.2183a59.038,59.038,0,0,1,4.0031,11.2313c2.659,9.6944,4.9832,19.4864,8.4119,28.956A57.3911,57.3911,0,0,0,45.2786,177.0955ZM19.6821,116.158c.139,1.1448.318,2.2864.41,3.4349.5564,6.919,2.913,13.5194,3.7012,20.3768a68.4775,68.4775,0,0,0,8.9827,26.51c2.9451,5.1312,6.3139,9.8981,11.4747,13.1207.0609-.1875.1245-.339.1588-.4969.1059-.4883-.29-.7106-.5248-1.0429-5.2066-7.3693-9.6858-15.0988-12.0932-23.8963-2.1728-7.94-4.6017-15.8094-6.5013-23.8247C24.1186,125.394,21.7258,120.8943,19.6821,116.158ZM37.3812,24.5458c.4843,1.4357,1.0666,2.8466,1.4373,4.3111,2.7075,10.697,4.4884,21.6454,8.9528,31.86,1.4907,3.411,3.09,6.674,6.2739,9.0053q-4.18-11.6266-8.36-23.2534l.6491-.26c3.2944,6.3237,5.0745,13.3175,8.1134,19.7561C52.951,50.4379,48.2686,36.2275,37.3812,24.5458ZM47.8549,179.8543l.6522-.1616c.05-.8929.1255-1.7852.1457-2.6788.1241-5.4782.0719-10.9669.4111-16.4315.2135-3.4372.0265-6.22-3.0568-8.678A59.4742,59.4742,0,0,1,36.36,142.1C41.5494,154.3062,44.1182,167.2628,47.8549,179.8543ZM95.712,139.4984c-5.3,7.8568-11.8845,14.4125-18.8747,20.5815-6.9332,6.1188-13.9286,12.1681-21.7322,18.0193a3.7166,3.7166,0,0,0,2.8452-.9017c6.9112-3.8813,13.1747-8.7254,19.605-13.3136A52.6845,52.6845,0,0,0,93.56,145.9861,14.3389,14.3389,0,0,0,95.712,139.4984ZM54.7648,179.0831c.1643-.1527.3314-.2995.4786-.4641a1.2769,1.2769,0,0,0-.1958-.2293,4.0428,4.0428,0,0,0-.5029.4273C54.5377,178.8239,54.6731,178.973,54.7648,179.0831Zm7.46-111.8625v-.4557a3.1269,3.1269,0,0,0-.5695.0932c-.2245.0788-.2322.2427-.0133.3172A2.3108,2.3108,0,0,0,62.2249,67.2206Z"/><path class="cls-1" d="M83.3841,6.9183c-2.03,8.6188-3.3525,17.3962-6.3234,25.8047-2.0727,5.8664-5.2543,11.0991-8.45,16.3352-2.4638,4.0373-5.2336,7.8883-7.8791,11.8142-.2534.3762-.245,1.1228-.91.9942-.8345-.1614-.4628-.9285-.514-1.4438-.9962-10.02.2073-19.8853,2.0963-29.7027a4.8936,4.8936,0,0,0,.0306-.7395,2.7432,2.7432,0,0,0,.5428-1.7274A1.6859,1.6859,0,0,0,62.53,26.89C66.8705,16.8641,74.9172,9.5083,81.26.9249c.34-.46.7276-1.0537,1.3807-.9.9068.2132.6011,1.0628.6263,1.6692C83.3393,3.434,83.35,5.1767,83.3841,6.9183ZM61.0245,56.713c8.95-6.9146,23.8933-46.0461,20.6018-53.3954-1.2253,3.0874-2.3219,6.2241-3.6932,9.2359-4.0616,8.92-8.3779,17.7271-12.3046,26.7051A64.5527,64.5527,0,0,0,61.0245,56.713ZM79.41,5.71C64.79,18.468,58.7457,34.76,60.2683,54.02,63.3424,36.575,73.457,21.92,79.41,5.71Z"/><path class="cls-1" d="M83.3432,121.745c-.8231,2.4523-1.9726,4.67-4.5921,5.84l4.0893-6.3331Z"/><path class="cls-1" d="M73.2082,56.2886q2.9976-3.2482,5.9951-6.4964l.6377.2393a53.0562,53.0562,0,0,1-6.31,6.8051Z"/><path class="cls-1" d="M65.4868,63.9429l6.4312-6.11a27.1834,27.1834,0,0,1-6.0108,6.6543Z"/></svg>