<svg id="Layer_1" data-name="Layer 1" xmlns="http://www.w3.org/2000/svg" viewBox="0 0 104.7787 190.7505"><defs><style>.cls-1{fill:#fff;}</style></defs><path class="cls-1" d="M46.1916,152.33c0-4.4248-.04-8.4925.0236-12.5587a3.6916,3.6916,0,0,0-1.2371-3.0948q-3.8448-3.3743-7.6464-6.7978a1.4976,1.4976,0,0,0-2.1831-.12c-2.3664,1.6914-4.8931,1.2794-7.3933.3092-6.2413-2.4219-11.251-10.5224-10.6486-17.1785.4732-5.2283,5.5034-7.774,9.5967-4.6677a29.7525,29.7525,0,0,1,10.6319,14.1761c.4109,1.2059.8975,2.5779.3036,3.6466-1.0849,1.9528.1692,2.5645,1.3863,3.5042,2.3541,1.8174,4.6058,3.7674,6.9182,5.6776.6438-.5381.3108-1.2475.32-1.8546.0571-3.83-.0069-7.6619.1128-11.4888.0953-3.0463.0256-5.0865-3.4746-7.1829-10.1449-6.0763-12.69-9.7609-18.2063-21.3606-2.7859-5.858-5.4963-11.7653-8.0778-17.7026-3.1219-7.1805-4.5159-14.9388-5.4283-22.7308-.0938-.8011-.2534-1.7664.6584-2.2406.9241-.48,1.5966.2024,2.1585.7979,6.3875,6.77,13.2724,13.1071,17.7533,21.4842,2.6566,4.9666,4.1209,10.3441,5.934,15.6016,2.71,7.86,5.7556,15.6133,7.7451,23.7118a2.0939,2.0939,0,0,0,1.45,1.83c0-2.2831.0054-4.3775-.001-6.4718-.0193-6.41-.12-12.8244.84-19.189.1723-1.1423.01-1.91-1.2673-2.235-4.1791-1.0641-6.6818-4.2449-9.0515-7.4723A82.3442,82.3442,0,0,1,22.2237,43a80.6517,80.6517,0,0,1-.9806-17.4119c.0334-.6378-.151-1.4522.5976-1.7751.8955-.3863,1.3144.4538,1.8358.9458a18.8086,18.8086,0,0,1,2.8942,3.4228,59.4716,59.4716,0,0,0,6.7133,8.3519c4.2946,4.5488,6.2818,10.3321,7.9952,16.1808a187.6922,187.6922,0,0,1,5.64,25.5633,8.7855,8.7855,0,0,0,1.5636,4.5177c.0944-6.2227,1.9563-11.6714,1.431-17.5306-1.3349-14.8876.9891-29.1522,8.09-42.5282C62.168,14.8927,67.5974,7.953,72.7941.8331c.2852-.3907.5531-.9675,1.1315-.8049.8168.23.7153,1.0015.7406,1.6549.1851,4.7834-.7576,9.4384-1.5762,14.112-2.0844,11.9-6.47,22.9746-11.9083,33.693q-4.5155,8.9-8.78,17.9271c-1.41,2.9977-1.5042,6.36-2.0779,9.58a2.7928,2.7928,0,0,0,.4537,2.3718c.7744-.3479.9707-1.1288,1.3373-1.7478A75.7045,75.7045,0,0,1,71.7133,55.5457c7.1647-5.4237,13.2833-12.0589,20.12-17.8707.6527-.5548,1.0907-1.4815,2.3922-1.4985a16.6839,16.6839,0,0,1-1.8714,4.8478c-3.7084,7.2648-5.988,15.19-10.1385,22.2341C76.9165,72.2524,69.947,79.6134,60.47,84.3225c-2.9157,1.4489-5.9394,2.6393-9.2949,2.5067-1.361-.0538-1.7945.5975-1.9987,1.9161-.9869,6.371-.6959,12.7762-.7674,19.747,1.8576-2.2893,4.4242-2.9563,4.4515-6.5547.0256-3.3886,2.6758-6.2566,5.6383-8.1449,3.7445-2.387,7.3117-5.1783,12.0712-5.5418,3.2681-.25,5.2468,1.5176,6.7312,3.8757a6.9065,6.9065,0,0,1,.0774,7.5882c-3.4885,5.8043-14.2831,10.0134-20.7322,8.082a7.92,7.92,0,0,0-.9279-.3529c-1.098-.1771-1.6162-2.29-2.7556-1.364-2.0019,1.6263-4.453,3.0861-4.7159,6.1114a162.9419,162.9419,0,0,0-.4016,16.4066c1.1165-.404,1.4578-1.3908,1.9986-2.1211a63.7346,63.7346,0,0,1,18.9149-17.5319,105.253,105.253,0,0,0,26.53-21.7487,13.6886,13.6886,0,0,1,1.0114-1.1053c.4019-.3712.8-1.0321,1.4446-.5257.4592.3608.1866.9309.0187,1.3939-.9361,2.581-1.9984,5.1225-2.8032,7.7433a120.0614,120.0614,0,0,1-5.2159,13.12c-3.1917,7.237-8.8234,12.4194-15.2687,16.4183-7.712,4.7847-15.9375,8.7949-25.5046,8.1516-.6371-.0429-1.1319-.1124-1.1569.78a164.17,164.17,0,0,0,.2815,19.9285c6.6633-7.5269,14.38-13.3809,22.5678-18.6349,10.1581-6.518,20.3954-12.9124,30.6011-19.3561.7033-.444,1.4157-.877,2.1483-1.27.3573-.1915.8009-.3785,1.16-.0314.3676.3556.173.7938-.0458,1.1342-4.1461,6.4512-6.3589,13.9268-10.7652,20.245a26.7283,26.7283,0,0,1-5.3027,5.9292c-9.3755,7.3623-19.2967,13.6379-31.2313,16.0488a24.3893,24.3893,0,0,1-6.7055.3482c-1.3039-.0973-1.7922.1738-1.643,1.5982.6557,6.2614,1.9389,12.4127,3.0809,18.5916.7621,4.1234,1.357,8.2777,2.1284,13.0461a6.4806,6.4806,0,0,1-1.8432-4.2578c-1.5148-9.3622-4.2178-18.52-4.8835-28.0214-.1206-1.722-1.2349-1.639-2.3342-1.9305-9.7248-2.5792-19.0484-6.0144-26.8789-12.6333a26.5,26.5,0,0,1-3.6173-3.78C9.3257,133.5881,5.1448,126.39,1.0354,119.149c-.4957-.8733-1.6271-2.0974-.6506-2.8774.9331-.7453,1.86.6452,2.6453,1.2619a202.7105,202.7105,0,0,0,27.3368,18.3318c5.8332,3.212,9.5986,8.6528,13.6961,13.6854C44.7332,150.3738,45.3558,151.2356,46.1916,152.33ZM43.78,113.7789l.2754.2584.0089-.3006-.3182.1032c.5868-.4257.1336-.8913.0314-1.3242-2.0855-8.8349-5.9611-17.106-8.307-25.836A61.6954,61.6954,0,0,0,20.4,60.1036c-2.45-2.6113-5.1695-4.9374-7.6879-8.2871a30.2532,30.2532,0,0,0,.9193,8.1555c2.48,13.7868,9.1647,25.8982,15.4917,38.1217,1.5859,3.0639,2.8843,6.4743,5.5735,8.794C37.5685,109.3652,40.7388,111.4974,43.78,113.7789ZM95.3419,89.4264c-.4434.02-.68-.0387-.7474.0428-6.92,8.3724-15.5086,14.7313-24.75,20.2358A67.9075,67.9075,0,0,0,49.5,128.8706c-.357.4959-1.1184.9633-.7313,1.705.3744.7176,1.1715.4367,1.804.434,8.9291-.0375,16.5732-3.8793,23.9318-8.3341,9.9533-6.0254,14.9409-15.7142,18.6906-26.2116C94.0086,94.1866,94.6135,91.8348,95.3419,89.4264ZM90.7,40.6825A11.32,11.32,0,0,0,88.8967,41.93,181.2058,181.2058,0,0,1,74.7274,54.8787c-3.6723,2.9838-7.5361,5.7256-10.7925,9.2434A94.19,94.19,0,0,0,51.0927,81.5665c-.6278,1.1028-1.5419,2.5838-1.0356,3.2947.7294,1.0242,2.3937.5067,3.6719.2181.1616-.0365.314-.1126.4751-.1529,7.2642-1.82,12.9659-6.1118,18.3066-11.1637,9.5611-9.0444,13.1206-21.4072,18.54-32.75C91.062,40.99,90.9381,40.9037,90.7,40.6825ZM73.5486,2.26C57.7943,20.7318,48.7214,40.9155,51.2224,65.6071,62.1232,45.6205,72.5158,25.9,73.5486,2.26Zm-27.968,153.34.6229-.6241c-2.7113-3.3325-5.4859-6.6161-8.1156-10.0118a32.44,32.44,0,0,0-8.918-7.8881c-8.3173-5.0544-16.5493-10.2269-24.0489-16.472a6.966,6.966,0,0,0-1.0041-.7327.9193.9193,0,0,0-1.1547.02c-.351.3869.0641.6676.2834,1.0136q4.938,7.7931,10.1541,15.4016C21.2162,147.7856,33.5843,151.335,45.5806,155.6006Zm54.11-36.1248c-6.7364,8.6842-14.5723,15.2059-22.7762,21.2651a111.3034,111.3034,0,0,1-27.5538,14.8584C66.9566,158.5952,98.7085,135.8878,99.6905,119.4758ZM45.76,81.1308c-.0581-1.0421-.0411-1.4425-.1077-1.8285a227.4481,227.4481,0,0,0-5.809-25.9981c-1.5169-5.1231-3.1374-10.2266-6.4515-14.4806-2.3394-3.0028-5.218-5.58-7.268-8.84-.2812-.4474-.5774-1.2625-1.2538-.95-.8805.407-.2048,1.1748-.0405,1.7118,4.0117,13.1128,9.0157,25.8692,13.9753,38.64C40.3983,73.4882,43.0856,76.9523,45.76,81.1308Zm52.11,38.2571c-1.1774-.32-1.7587.4068-2.4138.8226-7.8665,4.9926-15.62,10.1718-23.6,14.9746A134.1352,134.1352,0,0,0,52.068,150.3326a5.1321,5.1321,0,0,0-2.1411,3.2351C60.78,152.128,92.0565,129.88,97.87,119.3879ZM59.808,107.0173c1.1872-.1249,2.3578-.1666,3.4955-.3818a20.2159,20.2159,0,0,0,12.16-6.74c1.8277-2.1668,1.7039-4.64.5-7.0112-1.3515-2.6629-3.3848-3.7463-6.3845-3.0992a23.58,23.58,0,0,0-13.6666,8.3768,12.3489,12.3489,0,0,0-1.39,2.3521,4.178,4.178,0,0,0,2.8444,6.1685A21.2578,21.2578,0,0,0,59.808,107.0173Zm-41.539,7.5259c-.0047,6.3776,5.459,13.463,11.3631,14.8064,2.0923.4761,3.95.2787,5.4855-1.374,1.5332-1.6507,1.6287-3.4682.9252-5.5456-1.9242-5.6825-5.9733-9.6845-10.4-13.3979a4.165,4.165,0,0,0-2.8139-.8313C20.1783,108.2378,18.2717,110.88,18.269,114.5432Zm4.9847-85.2785-.7042.1027c0,.9812-.0359,1.9639.0059,2.9433a90.0786,90.0786,0,0,0,2.7579,17.21c2.9195,12.1536,8.84,22.6929,16.6944,32.2584a7.2261,7.2261,0,0,0,4.5617,2.737c-6.4524-8.4825-10.4286-17.5678-13.6813-27.05C29.6654,48.0716,25.8945,38.8687,23.2537,29.2647Zm.5814-.9673a.6749.6749,0,0,0,.5023.7215c.4026.16.4264-.2067.43-.3683a.6579.6579,0,0,0-.46-.7477C23.9322,27.797,23.9521,28.12,23.8351,28.2974Z"/><path class="cls-1" d="M69.3717,102.0816c1.3065-2.3992,3.0445-3.4458,4.2919-4.9272.2676-.3178.6474-.5924,1.0257-.2229.3515.3433.13.7586-.09,1.11A9.7944,9.7944,0,0,1,69.3717,102.0816Z"/><path class="cls-1" d="M23.632,121.0546c-2.6427-1.2865-3.2092-3.2719-3.8272-5.2059-.113-.3536-.1912-.8457.3307-1.0117.377-.12.57.1639.7227.4822C21.6886,117.0526,22.5305,118.7805,23.632,121.0546Z"/></svg>