<svg id="Layer_1" data-name="Layer 1" xmlns="http://www.w3.org/2000/svg" viewBox="0 0 121.0475 209.6199"><defs><style>.cls-1{fill:#fff;}</style></defs><path class="cls-1" d="M63.0523,53.082l-2.42-1.0751-.5424-.4808-1.0237-1.3226L58.19,48.4149a28.0828,28.0828,0,0,1-1.1156-9.7025l.2085-1.5712c.1665-1.625,1.4793-2.4617,2.4375-3.5422l1.347-.83c1.1878-.321,2.3515-1.11,3.6033-.1867l.1184.0341a8.1869,8.1869,0,0,1,3.5157,6.0115c-.1687.7743-.5422,1.61.6,1.9892a3.8833,3.8833,0,0,0-.3185,2.632,12.5052,12.5052,0,0,1-3.1747,9.255c-1.1964.8838-.0931,1.8472-.0956,2.7723l.95,7.4124c-.0228.3485-.2859.86.2958.9029.4543.0338.5667-.45.6313-.8477a81.2339,81.2339,0,0,0,5.792-10.1513,2.2926,2.2926,0,0,0,.4772-1.72c1.6778-6.9034,4.68-13.3028,7.5257-19.7616a2.4127,2.4127,0,0,0,.8932-1.7154c-.1345-.6938.839-.6819.8265-1.2982q.5751-.8859,1.1511-1.7708a49.8031,49.8031,0,0,1,9.7141-10.4005l1.3723-.978,14.8193-9.614.3751-.2074c2.7614-1.5231,5.51-3.07,8.2932-4.5527.7007-.3732,1.5647-.9487,2.3013-.2308.6284.6124.16,1.4446-.1129,2.1017-3.9932,9.6171-8.8993,18.7434-17.2015,25.3013C94.7,34.6342,87.128,42.6707,79.2279,50.3925A21.004,21.004,0,0,1,76.8127,52.55c-7.0352,5.0072-8.5283,13.4781-12.9068,20.255a100.7622,100.7622,0,0,1,12.1487-4.4269.8687.8687,0,0,0,.7457-.841c.2977-5.0112,4.2168-7.0991,7.8109-9.2611a22.8031,22.8031,0,0,1,9.2452-2.824,8.9009,8.9009,0,0,1,8.7156,4.1987,5.8119,5.8119,0,0,1-.1331,5.7147q-.2621.3381-.5241.6759c-.3955.316-1.125.3986-.8345,1.1934q-.2539.03-.5078.06l.0764.2118.39-.3306c.6071.0889.9386-.3325,1.2986-.7011l.17-.034.044-.1675q4.4145-2.5707,8.8288-5.1417c.4259-.2482.8623-.6569,1.3651-.3432.5358.3342.3829.8761.1264,1.3271-4.37,7.685-7.3278,16.2986-14.7217,21.9873A34.1859,34.1859,0,0,1,91.0505,88.23a65.65,65.65,0,0,0-13.7429,8.0737,65.6983,65.6983,0,0,1-9.6548,5.7162c-2.89,1.5361-6.138,1.3648-9.2632,1.7059-3.4566.3772-3.4177.3507-3.8018,3.8474a97.2413,97.2413,0,0,0,.0406,21.429,30.5594,30.5594,0,0,0,1.3783,6.6073,52.1971,52.1971,0,0,1,8.1555-10.2185,1.1942,1.1942,0,0,0,.306-1.3387,15.1347,15.1347,0,0,1,5.5864-15.9673c3.0071-2.3529,6.1074-3.8949,10.1064-3.0846,3.9217.7945,6.022,3.7058,5.1921,7.6215a12.4926,12.4926,0,0,1-2.059,4.5119,29.7009,29.7009,0,0,1-8.95,8.22c-2.31,1.4331-4.9679,2.0288-7.6177.6892-.9219-.466-1.3738-.0342-1.8956.5509a75.5145,75.5145,0,0,0-7.5733,9.903,3.76,3.76,0,0,0-.5487,3.0919c1.71,6.5389,4.51,12.6184,7.8287,19.0492.34-2.4413.4447-4.4477.9175-6.3633a58.8569,58.8569,0,0,1,7.89-17.98,109.5849,109.5849,0,0,1,10.506-14.2511c6.0611-6.6662,11.1319-14.11,16.6752-21.1826.5135-.6552.9992-1.3331,1.5308-1.9731.26-.3132.581-.6382,1.0557-.4873.5055.1608.4625.6282.4829,1.033a2.74,2.74,0,0,1-.0442.746c-2.1575,9.3213-2.6927,19.0972-7.8814,27.5683a50.9176,50.9176,0,0,1-4.0752,6.2727c-5.88,7.0307-11.1094,14.5554-16.6755,21.8239-2.0875,2.7259-4.3334,5.3075-7.5062,6.82-1.3031.6211-1.347,1.27-.7134,2.4911a131.583,131.583,0,0,0,10.06,15.7734c.6484.9071,1.2679,1.835,2.0924,3.0314-1.06-11.5013,1.3472-22.2115,5.4129-32.2426C89.97,135.6407,97.8181,122.6712,109.3011,112.3a4.1244,4.1244,0,0,1,.79-.6066c.5639-.3,1.1713-.9447,1.7989-.4359.6167.5.2489,1.2565-.0351,1.8454a44.11,44.11,0,0,0-3.41,10.9249c-1.5714,8.1606-2.2506,16.5051-4.8192,24.4583a76.6479,76.6479,0,0,1-14.1407,26.1506c-2.41,2.8646-5.0126,5.5673-7.5161,8.3538-.5155.5739-1.4143,1.0321-.5377,2.0394,4.1952,4.8207,8.1956,9.8255,13.4584,14.1349.7734-4.197,1.3691-8.2092,3.5066-11.7215.267-.4388-.05-.7612-.2693-1.1162a10.7224,10.7224,0,0,1-.5346-10.3076c1.8844-4.2793,3.5655-8.8023,7.7053-11.7009a11.1108,11.1108,0,0,1,6.7309-2.1994c4.5306.0493,9.3693,2.96,6.67,9.4081-2.7979,6.6854-7.4861,11.7184-13.2811,15.8475a4.3823,4.3823,0,0,1-4.0347.7792c-1.5937-.5705-2.0248.2562-2.48,1.4581a51.3635,51.3635,0,0,0-2.3394,9.4256,2.3843,2.3843,0,0,0,1.2747,2.6641,46.8731,46.8731,0,0,1,6.7728,5.1011c.5543.5445,1.564,1.1454.768,2.0244-.6527.7208-1.3406-.0789-1.9219-.506-2.48-1.8223-5.0111-3.5815-7.4074-5.508-1.1327-.9107-1.8634-.9275-2.9584.0563-4.843,4.3517-10.5653,6.0285-17.0758,6.5383-14.4944,1.1351-27.7074-2.3274-40.1182-9.5583-1.5806-.9209-3.2216-1.7382-4.8355-2.602-.5876-.3145-1.3348-.594-1.2014-1.4007.1309-.7922.9369-.8822,1.581-.9876a75.1329,75.1329,0,0,1,12.1681-1.0976c.6567,0,1.4678.5288,1.9979-.3393l.0563.0208c1.7974,1.2634,3.934,1.0776,5.9068,1.0949a136.7282,136.7282,0,0,1,22.848,1.8881c4.7366.844,9.42,1.9855,14.1362,2.9472a6.3938,6.3938,0,0,0,3.25.32c-.3623-1.1524-1.36-1.6878-2.0811-2.421-3.68-3.74-7.04-7.7635-10.3988-11.7827a4.3129,4.3129,0,0,0-3.1-1.7206c-3.215-.3485-6.4077-.9038-9.6094-1.3754a4.7256,4.7256,0,0,0-2.5485-.3215,52.9441,52.9441,0,0,0-8.9963-.444l-4.4916-.6572a3.5406,3.5406,0,0,0-2.0058-.3732,1.78,1.78,0,0,0-1.5018-.3821l-.9968-.1584c-.7253-.3486-1.4476-.8625-2.1938-.0389-.794-1.1884-2.1264-1.1238-3.3042-1.4191a2.0759,2.0759,0,0,0-1.4988-.5151l-.0806-.123-.1424.0375a5.1444,5.1444,0,0,0-2.2638-1.061c-2.8473-1.5407-5.6485-3.1747-8.55-4.605C18.193,167.4793,9.4783,160.9388.8466,154.2661c-.39-.3017-.9752-.5756-.8214-1.127.2479-.8885,1.079-.562,1.6966-.577a45.86,45.86,0,0,1,16.3652,3.0638c11.281,3.9855,23.0032,6.724,33.8052,12.0906,7.8156,3.8829,15.3339,8.2581,22.8867,12.8887.3463-1.0489-.3849-1.7226-.8335-2.3692a107.1483,107.1483,0,0,1-9.3683-15.6026,2.6,2.6,0,0,0-2.2626-1.63c-6.4605-.8388-11.5844-4.2514-16.429-8.359a118.2064,118.2064,0,0,1-26.8242-33.2265c-3.1453-5.657-7.0383-10.9162-9.1668-17.1119-.2985-.8688-1.2377-1.9245-.18-2.7181.94-.7047,1.9784.103,2.7271.664a136.2311,136.2311,0,0,1,12.9036,10.5511c12.3449,11.8411,21.6377,26.1063,32.25,39.3193a7.152,7.152,0,0,0,2.4017,3.015l-1.8592-3.6822c-1.7437-5.7187-3.7491-11.3672-4.7008-17.2994a2.382,2.382,0,0,0-1.6522-1.99c-9.9191-3.7152-15.2124-12.0193-20.22-20.536a90.1373,90.1373,0,0,1-9.1917-21.5058c-1.9774-7.0958-1.98-14.4738-2.3823-21.7773-.0311-.5651-.09-1.2416.6215-1.4757.6728-.2213,1.1036.2995,1.4647.7279,4.1657,4.9428,8.7944,9.44,11.9729,15.2573A241.2588,241.2588,0,0,1,46.5453,108.289c1.93,4.897,2.9642,10.0425,4.5467,15.032a9.7171,9.7171,0,0,0,1.541,3.1565c0-.7415.0533-1.4875-.0084-2.2238a105.2049,105.2049,0,0,1,.501-17.94c.0917-1.0535.36-2.1651-.6914-2.99-5.04-3.954-6.8186-9.93-9.33-15.3961a108.4187,108.4187,0,0,1-4.4155-11.9126c-1.3486-4.1662-1.0161-8.5514-1.234-12.8592-.0669-1.3224-.2353-2.64-.3573-3.9593A8.9084,8.9084,0,0,0,37.094,55.7,86.3449,86.3449,0,0,0,37.5731,41.71l-.0273-1.4992c.0461-6.1856-.2138-12.3966,1.3252-18.4821.3568.0521.6166.0332.6422.1018,3.1826,8.519,7.762,16.4516,9.5213,25.5875,1.87,9.7128,3.8728,19.371,4.4433,29.2673l.04.9959a41.7433,41.7433,0,0,0,.3458,7.7386c-.0283.4794-.0623.9667-.0964,1.454a28.5807,28.5807,0,0,0-.0049,6.2911l-.1932,4.25.5884.06.5076-4.3017,1.46-6.7351a2.5,2.5,0,0,0,.5665-1.7163q.2324-.6641.4648-1.3281.9679-2.3562,1.936-4.7123l4.1685-8.421.5256-.9957a6.5082,6.5082,0,0,0,1.1552-5.1716c-.4768-3.45-.8256-6.9168-1.228-10.3768C63.7319,53.2566,63.4761,53.0818,63.0523,53.082Zm36.67,15.245c-.5131-.267-.9294-.2386-1.1527.3779l-.4557.2657.1762.1248.2316-.4343c.4872.1969.8142-.0838,1.1263-.3878l.265-.3585c-.0479-.0228-.1107-.0776-.1414-.0634C99.4976,67.9782,99.5262,68.1462,99.722,68.327ZM116.3053,3.36c-2.5207,1.4364-5.1128,2.7619-7.5477,4.3314C103.1063,11.3339,97.187,14.5956,92.0162,18.94c-8.3756,7.0374-11.7089,17.12-15.9143,26.6629-.1392.316-.2149.8915.2906,1.0436.2232.0671.63-.1638.8238-.3772.3878-.4271.6744-.9442,1.0233-1.4088,6.0494-8.0572,12.3516-15.9468,20.2515-22.2515,6.8878-5.497,12.491-12.1391,18.2775-18.6539C117.192,3.3076,116.9,3.216,116.3053,3.36Zm-67.03,122.0365c.1749.2179.2756.7131.6273.4567.2523-.1838.1056-.6014-.1979-.8289-.2811-1.034-.5689-2.0662-.842-3.1022a175.6672,175.6672,0,0,0-17.16-42.117c-2.2679-3.9955-5.537-7.1019-8.4484-10.6733a1.6382,1.6382,0,0,0,.1046,1.638c4.6728,11.188,8.2243,22.8222,13.3815,33.8143C40.195,111.9471,43.5593,119.3852,49.2753,125.3962Zm59.9209-8.4864c-1.21-.25-1.2885.91-1.6354,1.4935-3.8675,6.5033-7.6986,13.0809-10.4327,20.118-4.6663,12.01-8.57,24.31-13.332,36.2941a11.7507,11.7507,0,0,0-1.3,5.4407c2.8062-3.1841,5.538-5.8615,7.778-8.901a78.8675,78.8675,0,0,0,15.3292-38.2267c.6415-5.5379,1.46-11.0423,3.62-16.2466l-.042-.3917ZM39.2206,25.5372c-.186,1.6724-.4055,2.874-.44,4.0809-.2594,9.063.1345,18.1271-.1627,27.1971-.1847,5.637-.6983,11.6.8139,16.8793A104.987,104.987,0,0,0,49.6745,98.51a5.9656,5.9656,0,0,0,2.6408,2.6659C52.2835,85.6,52.84,70.303,49.2927,55.2116,46.9313,45.1653,45.1482,34.976,39.2206,25.5372ZM61.2147,159.3279a1.6982,1.6982,0,0,0-.4858-1.5438c-9.7594-13.243-18.89-26.9821-30.3433-38.897-5.4036-5.6215-10.29-11.7937-16.852-16.218a6.39,6.39,0,0,0-2.4437-1.4832,3.6219,3.6219,0,0,0,.7352,2.47c3.96,7.696,8.422,15.1117,12.9162,22.495a98.1293,98.1293,0,0,0,27.6659,29.4267A21.4823,21.4823,0,0,0,61.2147,159.3279Zm11.66,22.68c-7.9293-8.5439-59.6965-29.0572-69.1154-27.5117A123.56,123.56,0,0,0,24.15,168.5254c6.2016,3.3807,12.3012,6.9918,19.07,9.2425C52.7591,180.94,62.8889,179.5145,72.8749,182.0078ZM101.453,100.54c-.8883.2658-1.1671,1.0228-1.606,1.5913-5.2824,6.8421-10.5756,13.6665-16.1263,20.3051-5.5954,6.692-10.7343,13.789-14.1722,21.91-1.7792,4.2031-3.597,8.4206-3.7455,13.1061-.053,1.6718.451,2.1715,1.9944,1.1745a19.56,19.56,0,0,0,4.8517-4.6226c4.9165-6.39,9.4857-13.0807,14.7762-19.143C96.049,124.98,99.8694,113.3116,101.453,100.54Zm-44.8036,1.0619c5.1744.6182,9.9592-.0355,14.1859-3.0074a155.6938,155.6938,0,0,1,24.0352-14.137,18.5732,18.5732,0,0,0,8.04-7.3042c2.405-3.9877,4.7347-8.0211,7.0588-12.0567.2785-.4837,1.0015-.9871.2338-1.8071-1.537.9735-3.1245,1.882-4.6091,2.9352A141.7708,141.7708,0,0,1,78.5632,81.1542,44.5283,44.5283,0,0,0,67.648,87.6035a35.7151,35.7151,0,0,0-9.5049,11.03C69.3679,93.549,79.3821,86.3,90.3269,80.7476,85.3823,85.3259,79.5425,88.48,73.7882,91.7688Q65.21,96.6708,56.6494,101.6022Zm31.1251,99.7886C76.5854,197,38.621,193.7285,32.961,196.6164c4.9758,2.6966,9.7044,5.5628,14.9879,7.4783a67.8567,67.8567,0,0,0,30.7253,3.4122c4.397-.4648,8.52-1.7613,11.9175-4.9576-11.6609,1.8046-23.2479,2.6758-34.7367-.7508A93.0168,93.0168,0,0,0,87.7745,201.3908ZM97.4661,69.3615A37.3731,37.3731,0,0,1,83.6,72.4405c-2.1668.07-4.23-.2629-5.5374-2.19-.7188-1.0592-1.4458-.847-2.3255-.47-3.2107,1.3762-6.4778,2.6378-9.6091,4.1757-1.7533.8611-3.7124,1.6938-4.6784,3.5813a58.4394,58.4394,0,0,0-5.828,21.4972c.21-.0343.3345-.018.3683-.0657.3289-.4642.6509-.9338.96-1.4117a45.1688,45.1688,0,0,1,18.153-16.305c4.6949-2.3229,9.4616-4.5012,14.2039-6.7275A36.8637,36.8637,0,0,0,97.4661,69.3615Zm.57,111.0158c.029.4971.0416.9958.09,1.491.1858,1.9072.7916,3.5655,2.6747,4.4613,1.9684.9365,3.5235.0443,5.0191-1.12a35.0021,35.0021,0,0,0,11.3451-14.56c1.578-3.9094-.132-6.5323-4.3144-6.9431a7.801,7.801,0,0,0-5.0771.8537C101.9552,168.235,99.172,173.8017,98.0362,180.3773Zm7.9755-62.5182c-13.1708,9.4892-29.7373,50.3349-25.5263,62.7273,3.9451-10.8149,8.0132-21.3246,11.6053-31.9945C95.7007,137.8689,100.7255,127.8333,106.0117,117.8591Zm-28.3407-11.46a5.911,5.911,0,0,0-2.9191.4755,17.375,17.375,0,0,0-9.5784,11.13c-.6286,2.2219-.7611,4.5066,1.39,6.1186,2.208,1.6549,4.6373,1.3727,6.7972.0832a25.1178,25.1178,0,0,0,9.3375-9.1073C85.6167,109.9159,83.6641,106.6186,77.671,106.3989ZM83.7927,71.04c5.9253-.5435,11.7052-1.5435,16.2785-5.8293,2.0506-1.9217,2.0492-4.05.0614-6.0578a7.8938,7.8938,0,0,0-7.5589-2.2585c-4.5656,1.0339-8.8475,2.8541-12.1792,6.3519-1.4162,1.4869-2.6456,3.1036-1.6076,5.3048C79.7769,70.6506,81.64,71.163,83.7927,71.04Zm-61.9212-.7308C20.41,87.5679,36.6537,123.1446,47.4959,125.9957,35.1078,108.9608,29.6469,89.1422,21.8715,70.3091ZM75.9264,50.0174c1.5427.41,2.0049-.5615,2.6279-1.15,6.4072-6.0525,11.9669-13.0006,19.08-18.3011a62.6145,62.6145,0,0,0,16.5574-18.1313,21.989,21.989,0,0,0,2.7572-6.064c-.8265-.1718-.8592.3769-1.1033.6658-4.4636,5.2833-9.02,10.4864-14.4867,14.7744C91.294,29.7056,83.2624,39.4015,75.9264,50.0174Zm-8.4529-6.8241a16.1444,16.1444,0,0,0-1.2219-6.2742c-.6363-1.4675-1.2423-3.1169-3.2334-2.9206a4.5635,4.5635,0,0,0-4.214,3.0565,14.9945,14.9945,0,0,0,2.1717,13.3c1.4393,2.1071,3.3937,1.8018,4.7547-.4261A13.8845,13.8845,0,0,0,67.4735,43.1933ZM82.2957,180.1374c-.052.0412-.1383.0766-.1466.1253s.0608.1111.096.1675c.0521-.0413.1383-.0767.1468-.1255S82.331,180.1937,82.2957,180.1374Z"/><path class="cls-1" d="M111.4,174.8428c.2176-2.3178,1.5658-4.1009,2.5721-6.0317.1555-.2985.5237-.5342.8249-.2856a1.0093,1.0093,0,0,1,.2843.8437A9.6,9.6,0,0,1,111.4,174.8428Z"/><path class="cls-1" d="M99.3182,63.2239c-1.0767,2.4247-3.0571,3.2274-5.5188,3.1316A10.6781,10.6781,0,0,1,99.3182,63.2239Z"/></svg>