<svg id="Layer_1" data-name="Layer 1" xmlns="http://www.w3.org/2000/svg" viewBox="0 0 68.9395 138.1437"><defs><style>.cls-1{fill:#fff;}</style></defs><path class="cls-1" d="M40.7124,121.5612c1.7241-2.2983,4.0437-4.08,3.2192-7.5436-.5091-2.1393.4825-4.2635,1.4206-6.2289,3.0133-6.3129,7.2976-11.5136,13.5523-14.84,3.3123-1.7618,6.261-.9577,8.6882,1.8527a5.35,5.35,0,0,1,.5922,6.31c-3.3321,6.5242-7.6767,12.2906-13.99,16.2483-2.508,1.5723-5.2977,2.4577-8.32,1.2587a1.342,1.342,0,0,0-.9093-.0557c-1.4647.6083-4.2805,6.1956-3.9813,7.8552.69,3.8259,1.3929,7.65,2.1365,11.726-1.8577-.4685-1.6965-1.8431-1.9619-2.8291a129.5277,129.5277,0,0,1-3.6113-22.8875,4.965,4.965,0,0,0-1.5631-3.1856C25.519,97.9367,15.2057,86.5077,8.3415,72.49A60.7,60.7,0,0,1,3.25,56.3683C2.1938,50.47,1.245,44.5532.2633,38.6421c-.1138-.6855-.65-1.5555.2445-1.9959.8326-.41,1.3.4406,1.86.91C17.9885,50.6343,27.47,67.4484,32.6771,86.9381c1.3912,5.2076,3.3747,10.2536,4.5357,15.5488,1.0635-.1938.6-.937.6354-1.3872.3531-4.477.55-8.969,1.0184-13.433.2293-2.1844-.6135-4.1043-1.1255-6.0442C35.145,71.7848,34.6374,61.6849,33.62,51.6466c-.8226-8.1151,1.2444-15.8866,2.9891-23.6712,2.0431-9.1161,5.3834-17.8185,8.9185-26.4432C45.7952.8786,45.975-.1325,46.901.0144c1.0479.1663.9339,1.2633,1.0126,2.0483.8637,8.6118,1.8486,17.2152,2.5044,25.8433,1.05,13.821-.7344,27.3958-4.03,40.81a129.1839,129.1839,0,0,1-4.28,13.2917,40.68,40.68,0,0,0-2.4713,14.6669c.1064,7.6411-.9329,15.3034.45,22.92A3.0519,3.0519,0,0,0,40.7124,121.5612Zm-.085-41.423C50.932,55.1453,50.2921,29.3837,46.4585,3.13A164.9881,164.9881,0,0,0,35.457,40.8859a44.3776,44.3776,0,0,0-.453,10.1974c.2518,3.8253.9739,7.6522.9857,11.4395.0182,5.8754,1.8039,11.339,2.7031,16.994,1.0951-7.7807,1.0462-15.5957,1.4844-23.3833.4374-7.773.7677-15.5655,2.6994-23.174C41.8414,48.686,41.2784,64.422,40.6274,80.1382ZM3.5308,41.7294c9.7883,21.2322,21.2853,41.57,32.1536,62.6744-.2582-1.2862-.3975-2.1827-.62-3.058A238.4078,238.4078,0,0,0,25.817,72.1423C21.0712,60.1787,14.1647,49.5705,3.5308,41.7294ZM45.433,113.7521c-.0318,3.041,1.0742,4.0805,4.096,3.7536a9.5351,9.5351,0,0,0,4.82-1.8775,44.94,44.94,0,0,0,12.1729-14.3075c1.6636-3.04.987-5.3147-1.6-6.9133-1.9867-1.2277-3.9654-.7932-5.9237.2021-6.1794,3.1406-9.9448,8.3641-12.5923,14.5478A10.8622,10.8622,0,0,0,45.433,113.7521Zm-12.449-9.5565.7-.4442C23.5529,84.2617,12.8316,65.0757,3.2946,45.2726c1.01,10.36,3.0608,20.3352,8.056,29.6155,5.291,9.83,12.6435,18.0773,19.4829,26.7345C31.5261,102.4994,32.266,103.3388,32.984,104.1956Z"/><path class="cls-1" d="M64.7276,98.3757c.3153,2.4581-.9553,4.0673-2.8512,5.333A8.9607,8.9607,0,0,1,64.7276,98.3757Z"/></svg>